<?xml version="1.0" standalone="no"?>
<!DOCTYPE svg PUBLIC "-//W3C//DTD SVG 1.1//EN" "http://www.w3.org/Graphics/SVG/1.1/DTD/svg11.dtd" >
<svg xmlns="http://www.w3.org/2000/svg" xmlns:xlink="http://www.w3.org/1999/xlink" version="1.1">
<metadata>
Created by FontForge 20170731 at Fri Aug 13 03:34:29 2004
 By Aleksey,,,
Copyright (c) Design Science, Inc, 1999-2004.
</metadata>
<defs>
<font id="EuclidSymbol" horiz-adv-x="778" >
  <font-face 
    font-family="Euclid Symbol"
    font-weight="400"
    font-stretch="normal"
    units-per-em="1000"
    panose-1="5 5 1 2 1 7 6 2 5 7"
    ascent="800"
    descent="-200"
    x-height="431"
    cap-height="683"
    bbox="-166 -250.385 1083 950"
    underline-thickness="50"
    underline-position="-175"
    unicode-range="U+0020-E01E"
  />
<missing-glyph horiz-adv-x="1000" 
 />
    <glyph glyph-name=".notdef" unicode="&#xff;" horiz-adv-x="1000" 
 />
    <glyph glyph-name=".notdef" unicode="&#x2122;" horiz-adv-x="1000" 
 />
    <glyph glyph-name=".notdef" unicode="&#x2044;" horiz-adv-x="1000" 
 />
    <glyph glyph-name=".notdef" unicode="&#x2030;" horiz-adv-x="1000" 
 />
    <glyph glyph-name=".notdef" unicode="&#x3a9;" horiz-adv-x="1000" 
 />
    <glyph glyph-name=".notdef" unicode="&#x394;" horiz-adv-x="1000" 
 />
    <glyph glyph-name=".notdef" unicode="&#x178;" horiz-adv-x="1000" 
 />
    <glyph glyph-name=".notdef" unicode="&#x131;" horiz-adv-x="1000" 
 />
    <glyph glyph-name=".null" horiz-adv-x="0" 
 />
    <glyph glyph-name="nonmarkingreturn" horiz-adv-x="333" 
 />
    <glyph glyph-name="space" unicode=" " horiz-adv-x="250" 
 />
    <glyph glyph-name="exclam" unicode="!" horiz-adv-x="278" 
d="M193 663q2 23 -14.5 38.5t-38.5 15.5q-23 0 -39 -15.5t-14 -38.5l40 -466q2 -9 10 -9h6q9 0 9 9zM193 53q0 22 -15.5 37.5t-37.5 15.5t-37.5 -15.5t-15.5 -37.5t15.5 -37.5t37.5 -15.5t37.5 15.5t15.5 37.5z" />
    <glyph glyph-name="universal" unicode="&#x22;" horiz-adv-x="556" 
d="M556 667q3 8 0 15.5t-11 10.5q-19 7 -26 -12l-88 -230h-301l-87 230q-3 8 -10.5 11.5t-15.5 0.5t-11.5 -10.5t-0.5 -15.5l257 -676q3 -9 12 -12q6 -3 14 0q9 3 12 12zM416 410l-135 -356l-135 356h270z" />
    <glyph glyph-name="numbersign" unicode="#" horiz-adv-x="833" 
d="M776 153q0 8 -6 14t-14 6h-225l40 154h185q8 0 14 6t6 14t-6 14t-14 6h-172l80 302q2 8 -2 15.5t-12 9.5t-15.5 -2t-9.5 -12l-83 -313h-187l80 302q2 8 -2 15.5t-12 9.5t-15.5 -2t-9.5 -12l-83 -313h-237q-8 0 -14 -6t-6 -14t6 -14t14 -6h225l-41 -154h-184q-8 0 -14 -6
t-6 -14t6 -14t14 -6h172l-81 -302q-2 -8 2.5 -15.5t12.5 -9.5t15 2t9 12l83 313h188l-81 -302q-2 -8 2 -15.5t12 -9.5t15.5 2t9.5 12l83 313h238q8 0 14 6t6 14zM529 327l-40 -154h-187l40 154h187z" />
    <glyph glyph-name="existential" unicode="$" horiz-adv-x="556" 
d="M498 20v654q0 8 -6 14t-14 6h-402q-8 0 -14 -6t-6 -14t6 -14t14 -6h382v-287h-368q-9 0 -15 -6t-6 -14t6 -14t15 -6h368v-287h-382q-8 0 -14 -6t-6 -14t6 -14t14 -6h402q8 0 14 6t6 14z" />
    <glyph glyph-name="percent" unicode="%" horiz-adv-x="833" 
d="M776 146q0 37 -8.5 73t-28.5 68q-15 24 -38.5 42t-53.5 18q-33 0 -60 -17t-46 -43q-22 -31 -32 -67t-10 -74t10 -74t32 -67q19 -26 46 -43.5t60 -17.5q30 0 53.5 18.5t38.5 42.5q20 32 28.5 68t8.5 73zM689 719q5 7 3.5 15t-8.5 13q-8 5 -15.5 3t-12.5 -9
q-32 -48 -80 -73t-101 -27.5t-106.5 17t-96.5 61.5q-14 14 -31.5 22.5t-37.5 8.5q-32 0 -59.5 -17t-45.5 -43q-23 -32 -32.5 -68t-9.5 -74t9.5 -74.5t32.5 -67.5q18 -26 45.5 -43.5t59.5 -17.5q31 0 54.5 18.5t38.5 42.5q20 32 28 68.5t8 73.5q0 29 -5 58t-17 55
q34 -21 71.5 -31.5t75 -11t73.5 8.5t68 29l-456 -680q-5 -8 -3 -15.5t9 -12.5t15 -3.5t13 8.5zM751 146q0 -35 -7.5 -67.5t-24.5 -61.5q-14 -22 -32 -36t-40 -14q-20 0 -36.5 14t-27.5 35q-15 29 -18.5 62t-3.5 68t4 67.5t18 61.5q11 22 27.5 36t36.5 14q22 0 40 -14.5
t32 -36.5q17 -29 24.5 -61.5t7.5 -66.5zM307 548q0 -35 -7.5 -68t-24.5 -62q-13 -21 -31 -35.5t-41 -14.5q-20 0 -36.5 14t-27.5 35q-15 29 -18 62.5t-3 68.5t3 68t18 62q11 21 27.5 35.5t36.5 14.5q23 0 41 -14.5t31 -36.5q17 -29 24.5 -62t7.5 -67z" />
    <glyph glyph-name="ampersand" unicode="&#x26;" 
d="M726 400v31q-50 -3 -99 -3q-61 0 -121 3v-31q17 0 33 -4t28 -15q9 -9 10.5 -21.5t-5.5 -23.5l-26 -43q-28 -46 -56.5 -92t-60.5 -84q-24 31 -47.5 64.5t-45.5 66.5q-43 64 -72 137q22 24 43.5 50t38.5 52t28 50.5t11 46.5t-4.5 46t-14 43t-25.5 31.5t-40 12.5
q-30 0 -55.5 -13t-44 -34.5t-28.5 -50t-10 -58.5q0 -54 10.5 -106t29.5 -102l-123 -131q-17 -19 -27.5 -43t-10.5 -50q0 -34 15 -62t40 -47.5t57.5 -30.5t67.5 -11q54 0 99 20.5t83 55.5q37 -34 80.5 -55t96.5 -21q29 0 54.5 11.5t44 31t29.5 45.5t11 55h-25q0 -24 -9 -44.5
t-24.5 -35.5t-36 -24t-44.5 -9q-34 0 -68 25.5t-68 64.5q36 42 66 89.5t57 93.5l33 55q19 32 50 48q17 9 36 12.5t39 3.5zM360 584q0 -18 -8.5 -39t-23 -43.5t-33 -46t-39.5 -46.5q-14 43 -22 86.5t-8 88.5q0 22 5 42t15 35t24 24t31 9q30 0 44.5 -32.5t14.5 -77.5zM385 72
q-34 -29 -72.5 -46.5t-85.5 -17.5q-24 0 -43 12.5t-32 33.5t-20 48.5t-7 57.5q0 35 10 67t33 56l44 47q26 -62 66 -121q23 -35 49.5 -70.5t57.5 -66.5z" />
    <glyph glyph-name="suchthat" unicode="'" horiz-adv-x="429" 
d="M380 189q12 50 7 96t-30 82q-23 35 -61 55t-86 20q-32 0 -65 -11.5t-62 -32.5q-8 -5 -6 -12q1 -2 1.5 -3.5t1.5 -3.5q2 -3 5 -3q4 0 8 2q26 19 54.5 30t56.5 11q35 0 60 -18t38 -47q14 -32 12.5 -70.5t-11.5 -79.5h-180q-8 0 -13 -4.5t-6.5 -10.5t1 -10.5t10.5 -4.5h181
q-8 -28 -20.5 -53.5t-34.5 -45.5q-23 -22 -50.5 -33t-55.5 -11h-56q-8 0 -12.5 -5t-6 -10.5t1 -10.5t10.5 -5h55q41 0 82 14t77 41q35 26 59.5 61t34.5 73z" />
    <glyph glyph-name="parenleft" unicode="(" horiz-adv-x="389" 
d="M331 -240q0 4 -3 7q-48 45 -81 101t-53.5 118.5t-29 129t-8.5 134.5q0 67 8.5 134t29 129.5t53.5 118.5t81 101q3 3 3 7q0 3 -2 7q-3 3 -7 3q-7 0 -9 -2q-57 -44 -97.5 -100.5t-66.5 -121t-38.5 -135t-12.5 -141.5t12.5 -141.5t38.5 -135t66.5 -121t97.5 -100.5
q2 -2 9 -2q4 0 7 3q2 4 2 7z" />
    <glyph glyph-name="parenright" unicode=")" horiz-adv-x="389" 
d="M289 250q0 71 -12.5 141.5t-38.5 135t-66.5 121t-97.5 100.5q-4 2 -6 2h-3q-4 0 -7 -3q-2 -2 -2 -7q0 -4 3 -7q48 -45 81 -101t53.5 -118.5t29 -129.5t8.5 -134q0 -68 -8.5 -134.5t-29 -129t-53.5 -118.5t-81 -101q-3 -3 -3 -7q0 -3 2 -7q3 -3 7 -3h3q2 0 6 2
q57 44 97.5 100.5t66.5 121t38.5 135t12.5 141.5z" />
    <glyph glyph-name="asteriskmath" unicode="*" horiz-adv-x="500" 
d="M432 142q6 11 4 21.5t-13 15.5l-148 71l148 70q11 5 13 16t-4 21q-6 11 -17 14t-20 -4l-131 -97l15 168q1 11 -7 19t-20 8t-20 -8t-7 -19l15 -168l-131 97q-9 7 -20 4t-17 -14q-6 -10 -4 -21t13 -16l148 -70l-148 -71q-11 -5 -13 -15.5t4 -21.5q6 -10 17 -13t20 4l131 96
l-15 -167q-1 -11 7 -19.5t20 -8.5t20 8.5t7 19.5l-15 167l131 -96q9 -7 20 -4t17 13z" />
    <glyph glyph-name="plus" unicode="+" 
d="M720 250q0 8 -6 14t-14 6h-292v293q0 8 -6 14t-14 6t-14 -6t-6 -14v-293h-292q-8 0 -14 -6t-6 -14t6 -14t14 -6h292v-293q0 -8 6 -14t14 -6t14 6t6 14v293h292q8 0 14 6t6 14z" />
    <glyph glyph-name="comma" unicode="," horiz-adv-x="278" 
d="M219 2q0 17 -3 35.5t-10.5 33.5t-19.5 25t-31 10q-26 0 -39.5 -16.5t-13.5 -36.5t13.5 -36.5t39.5 -16.5t41 18q0 -4 0.5 -8t0.5 -8q0 -51 -20.5 -97t-57.5 -81q-6 -8 0 -13l2 -3q7 -5 14 0q40 38 62 88t22 106z" />
    <glyph glyph-name="minus" unicode="-" 
d="M692 250q0 8 -6 14t-14 6h-569q-8 0 -14 -6t-6 -14t6 -14t14 -6h569q8 0 14 6t6 14z" />
    <glyph glyph-name="period" unicode="." horiz-adv-x="278" 
d="M191 53q0 22 -15.5 37.5t-37.5 15.5t-37.5 -15.5t-15.5 -37.5t15.5 -37.5t37.5 -15.5t37.5 15.5t15.5 37.5z" />
    <glyph glyph-name="slash" unicode="/" horiz-adv-x="500" 
d="M445 723q7 19 -12 26q-8 3 -15.5 -0.5t-10.5 -11.5l-346 -960q-7 -19 12 -26q8 -3 15.5 0.5t10.5 11.5z" />
    <glyph glyph-name="zero" unicode="0" horiz-adv-x="500" 
d="M459 319q0 68 -9 135t-44 125q-25 42 -67 65t-90 23t-90 -23t-67 -65q-35 -58 -44 -125t-9 -135q0 -66 9 -132t44 -123q25 -41 67 -63.5t90 -22.5t90 22.5t67 63.5q35 57 44 123t9 132zM376 335q0 -32 -0.5 -68t-2.5 -70t-6.5 -64.5t-12.5 -51.5q-13 -35 -41 -58t-64 -23
t-64 23t-41 58q-8 21 -12.5 51.5t-6.5 64.5t-2.5 70t-0.5 68q0 30 0.5 62.5t2.5 64t6.5 59.5t12.5 48q14 32 42 53.5t63 21.5t63 -21.5t42 -53.5q8 -20 12.5 -48t6.5 -59.5t2.5 -64t0.5 -62.5z" />
    <glyph glyph-name="one" unicode="1" horiz-adv-x="500" 
d="M419 0v31h-28t-29.5 0.5t-26.5 2t-20 3.5q-10 2 -15.5 10.5t-5.5 19.5v589q0 11 -11 11h-12q-35 -37 -83 -51t-99 -14v-30q35 0 68.5 6t62.5 20v-531q0 -11 -5.5 -19.5t-15.5 -10.5q-8 -2 -20.5 -3.5t-26.5 -2t-29 -0.5h-28v-31q162 6 324 0z" />
    <glyph glyph-name="two" unicode="2" horiz-adv-x="500" 
d="M448 174h-25q-2 -12 -4.5 -26t-5.5 -27t-6.5 -23.5t-7.5 -14.5q-2 -2 -20.5 -3.5t-44 -2t-54.5 -0.5h-51h-101l115 112q29 28 64.5 58t67 64t52.5 73.5t21 87.5q0 42 -15.5 77.5t-43.5 62t-67.5 41t-86.5 14.5q-38 0 -72 -14.5t-59 -39.5t-39.5 -59t-14.5 -72
q0 -26 16.5 -39.5t35.5 -13.5q20 0 36.5 13.5t16.5 39.5q0 15 -6.5 26t-16 17.5t-21.5 8t-23 -1.5q15 45 52 74.5t85 29.5q33 0 57.5 -13.5t41 -36t25 -52t8.5 -62.5q0 -40 -13.5 -76.5t-35.5 -70t-49.5 -66t-55.5 -63.5l-151 -169q-2 -4 -2 -6v-21h370z" />
    <glyph glyph-name="three" unicode="3" horiz-adv-x="500" 
d="M456 171q0 38 -16.5 72.5t-45.5 59.5q-23 20 -49.5 32t-55.5 17q30 10 55.5 27t44 40t29.5 51t11 60q0 31 -16 56t-40 42q-28 20 -61 29.5t-68 9.5q-33 0 -64.5 -9.5t-56 -27.5t-39.5 -43.5t-15 -57.5q0 -25 16 -37.5t35 -12.5t35 12.5t16 37.5q0 29 -20.5 42t-41.5 8
q18 29 54.5 46t80.5 17q42 0 69 -32q14 -16 18.5 -36.5t4.5 -43.5q0 -31 -6.5 -60.5t-19.5 -52.5t-32.5 -37.5t-45.5 -16.5q-14 -2 -28 -2t-28 -2q-4 0 -7 -3t-2 -7v-3q0 -9 9 -9h68q25 0 46 -13t35 -34q17 -26 23 -56.5t6 -62.5t-6 -62.5t-23 -56.5q-14 -21 -35 -33.5
t-46 -12.5q-51 0 -94 20.5t-63 56.5q11 -2 23 0.5t21.5 9.5t15.5 18t6 27q0 28 -17.5 41.5t-38.5 13.5q-20 0 -37.5 -13.5t-17.5 -41.5q0 -38 17 -67.5t45.5 -50t65 -31.5t74.5 -11q42 0 80.5 14t69.5 42q29 26 45.5 62t16.5 75z" />
    <glyph glyph-name="four" unicode="4" horiz-adv-x="500" 
d="M470 166v31h-100v470q0 11 -11 11h-10q-7 0 -11 -6l-310 -475v-31h265v-99q0 -10 -4 -18.5t-12 -11.5q-13 -5 -37 -5.5t-45 -0.5v-31q137 6 272 0v31q-20 0 -44.5 0.5t-36.5 5.5q-8 3 -12 11.5t-4 18.5v99h100zM298 197h-242l242 371v-371z" />
    <glyph glyph-name="five" unicode="5" horiz-adv-x="500" 
d="M448 201q0 42 -13.5 82t-40.5 72q-26 30 -60.5 48t-73.5 18q-40 0 -72 -13.5t-56 -38.5v196q40 -13 87 -13q56 0 106 25.5t82 71.5q2 2 2 8q0 10 -10 10q-1 0 -2 -0.5t-2 -0.5q-67 -32 -140 -32t-140 32q-1 0 -2 0.5t-2 0.5q-10 -2 -10 -11v-326q0 -11 12 -11h4q6 0 9 6
q21 35 54.5 54t79.5 19q24 0 44 -15.5t33 -39.5q17 -32 19.5 -68t2.5 -74t-5.5 -74.5t-25.5 -66.5q-17 -25 -43 -39.5t-55 -14.5q-53 0 -93.5 32t-54.5 81q10 -4 22 -3t21.5 7t16 16.5t6.5 25.5q0 25 -15.5 37t-33.5 12t-33.5 -12t-15.5 -37q0 -38 14 -72t38 -59.5t57 -40.5
t71 -15q44 0 83.5 17t70.5 48q31 32 47.5 72.5t16.5 85.5z" />
    <glyph glyph-name="six" unicode="6" horiz-adv-x="500" 
d="M456 203q0 48 -13 85t-45 73q-30 33 -63 49t-79 16t-77 -28t-48 -71q1 60 6.5 117t33.5 107q22 39 56.5 65t77.5 26q31 0 54.5 -10.5t35.5 -30.5q-20 4 -37.5 -7.5t-17.5 -37.5q0 -23 14 -34.5t31 -11.5q18 0 32 11.5t14 34.5q0 54 -36 82.5t-90 28.5q-57 0 -105 -28.5
t-82 -73.5q-40 -53 -58 -115t-18 -127t9.5 -130t43.5 -123q24 -42 64.5 -67t89.5 -25q47 0 81 16t66 50q33 36 46.5 73.5t13.5 85.5zM367 203q0 -44 -3.5 -79t-20.5 -64q-17 -28 -39.5 -41t-54.5 -13q-33 0 -59 22t-39 56q-8 20 -11.5 50.5t-5.5 65.5v4q-3 39 4 75
t22.5 63.5t39 44.5t55.5 17q31 0 52 -14t38 -42q16 -28 19 -64t3 -81z" />
    <glyph glyph-name="seven" unicode="7" horiz-adv-x="500" 
d="M484 625v19h-188h-41q-21 0 -42 0.5t-39 2t-30 3.5q-13 2 -23 9t-8 18h-25l-32 -207h25q2 12 4 26t5 27t7 23.5t9 15.5q2 2 22 3t47.5 1.5t58.5 0.5h56h120l-93 -131q-65 -91 -103 -195.5t-38 -216.5q0 -23 14.5 -35t31.5 -12t31.5 12t14.5 35q0 54 1.5 108t8.5 105.5
t22 99t43 86.5l139 196q2 4 2 6z" />
    <glyph glyph-name="eight" unicode="8" horiz-adv-x="500" 
d="M456 168q0 48 -24 89t-64 67l-60 39q24 12 46 27.5t38.5 35t26.5 42.5t10 50q0 34 -15 61.5t-40.5 47t-58 30t-66.5 10.5q-36 0 -68.5 -13t-57.5 -35.5t-39.5 -53t-14.5 -66.5q0 -43 21.5 -79t56.5 -59l40 -26q-30 -14 -56 -32.5t-46 -41.5t-31.5 -50.5t-11.5 -60.5
q0 -39 17.5 -71t46 -54.5t66 -34.5t77.5 -12q42 0 79.5 14.5t66 40t45 60t16.5 75.5zM384 518q0 -46 -28 -81.5t-71 -59.5l-122 79q-22 14 -35.5 35t-13.5 46q0 23 11 42.5t29.5 33.5t43 21.5t51.5 7.5t51.5 -9.5t43 -26t29.5 -39.5t11 -49zM406 133q0 -28 -12.5 -51.5
t-34.5 -40t-50.5 -26t-59.5 -9.5q-32 0 -60.5 11t-50 30.5t-34 46t-12.5 56.5q0 56 33.5 100t84.5 70l137 -88q26 -17 42.5 -43t16.5 -56z" />
    <glyph glyph-name="nine" unicode="9" horiz-adv-x="500" 
d="M456 323q0 64 -9 129t-42 122q-24 42 -63 67.5t-87 25.5t-83.5 -16t-67.5 -50q-34 -36 -48 -73t-14 -86q0 -48 13 -85t45 -73q30 -34 63 -50t79 -16q47 0 77.5 28t47.5 72q-1 -60 -5.5 -116t-30.5 -107q-20 -38 -52 -63.5t-72 -25.5q-35 0 -61.5 8.5t-40.5 28.5
q19 -3 36 8t17 37q0 23 -14 34.5t-32 11.5q-17 0 -31 -11.5t-14 -34.5q0 -29 11 -49.5t30 -34t44.5 -20t54.5 -6.5q55 0 100.5 29t76.5 73q38 54 55 116t17 127zM365 445q-1 -1 -1 -4q3 -39 -4 -75.5t-22.5 -64t-39.5 -44.5t-55 -17t-52 14t-38 43q-16 28 -19 64t-3 81
q0 44 3 79.5t22 64.5q18 29 41.5 42.5t57.5 13.5q32 0 56.5 -23t36.5 -56q8 -20 11.5 -51t5.5 -67z" />
    <glyph glyph-name="colon" unicode=":" horiz-adv-x="278" 
d="M191 378q0 22 -15.5 37.5t-37.5 15.5t-37.5 -15.5t-15.5 -37.5t15.5 -37.5t37.5 -15.5t37.5 15.5t15.5 37.5zM191 53q0 22 -15.5 37.5t-37.5 15.5t-37.5 -15.5t-15.5 -37.5t15.5 -37.5t37.5 -15.5t37.5 15.5t15.5 37.5z" />
    <glyph glyph-name="semicolon" unicode=";" horiz-adv-x="278" 
d="M208 378q0 22 -15.5 37.5t-37.5 15.5t-37.5 -15.5t-15.5 -37.5t15.5 -37.5t37.5 -15.5t37.5 15.5t15.5 37.5zM210 2q0 15 -1.5 33.5t-7.5 34t-17 26t-29 10.5q-26 0 -39.5 -16.5t-13.5 -36.5t13.5 -36.5t39.5 -16.5q20 0 33 11v-9q0 -50 -17.5 -95.5t-51.5 -82.5
q-6 -6 0 -14l3 -2q6 -6 13 0v1q37 39 56 89t19 104z" />
    <glyph glyph-name="less" unicode="&#x3c;" 
d="M691 -29q3 8 0.5 15.5t-10.5 11.5l-531 252l531 252q8 4 10.5 11.5t-0.5 15.5q-4 8 -11.5 10.5t-15.5 -1.5l-569 -270q-7 -3 -10 -9q-3 -9 0 -18q3 -5 10 -9l569 -270q8 -4 15.5 -1.5t11.5 10.5z" />
    <glyph glyph-name="equal" unicode="=" 
d="M720 347q0 8 -6 14t-14 6h-624q-8 0 -14 -6t-6 -14t6 -14t14 -6h624q8 0 14 6t6 14zM720 153q0 8 -6 14t-14 6h-624q-8 0 -14 -6t-6 -14t6 -14t14 -6h624q8 0 14 6t6 14z" />
    <glyph glyph-name="greater" unicode="&#x3e;" 
d="M695 241q3 9 0 18q-5 6 -10 9l-569 270q-8 4 -15.5 1.5t-11.5 -10.5q-3 -8 -0.5 -15.5t10.5 -11.5l531 -252l-531 -252q-8 -4 -10.5 -11.5t0.5 -15.5q4 -8 11.5 -10.5t15.5 1.5l569 270q7 4 10 9z" />
    <glyph glyph-name="question" unicode="?" horiz-adv-x="472" 
d="M415 570q0 30 -13.5 57t-39.5 44q-32 22 -68.5 28.5t-72.5 6.5q-32 0 -61.5 -9.5t-52.5 -27.5t-37 -43t-14 -56q0 -23 14 -34.5t31 -11.5q18 0 32 11.5t14 34.5q0 26 -18 37.5t-37 7.5q16 32 51.5 50t77.5 18q26 0 49.5 -6t40.5 -23q14 -15 17 -36.5t3 -47.5
q0 -24 -6 -46t-22 -38q-47 -48 -70.5 -110t-23.5 -129v-50q0 -9 9 -9h6q10 0 10 9v50q0 68 35.5 126t92.5 96q26 17 39.5 44t13.5 57zM274 53q0 22 -15.5 37.5t-37.5 15.5t-37.5 -15.5t-15.5 -37.5t15.5 -37.5t37.5 -15.5t37.5 15.5t15.5 37.5z" />
    <glyph glyph-name="congruent" unicode="@" 
d="M720 533q0 11 -4 19.5t-10 8.5t-10 -8.5t-4 -19.5q0 -23 -9.5 -46t-27.5 -42t-43.5 -31t-57.5 -12t-59.5 12t-53.5 29.5t-51 38t-51.5 38t-55 29.5t-61.5 12q-32 0 -62 -13t-53 -37.5t-37 -59t-14 -77.5q0 -11 4 -19.5t10 -8.5q5 0 9.5 8.5t4.5 19.5q0 22 9.5 45.5
t27.5 42.5t43.5 31t57.5 12q31 0 58.5 -12t53.5 -29.5t51 -38t51.5 -38t55.5 -29.5t62 -12q32 0 62 13t53 37.5t37 59t14 77.5zM720 152q0 8 -6 14t-14 6h-624q-8 0 -14 -6t-6 -14t6 -14t14 -6h624q8 0 14 6t6 14zM720 -42q0 8 -6 14t-14 6h-624q-8 0 -14 -6t-6 -14t6 -14
t14 -6h624q8 0 14 6t6 14z" />
    <glyph glyph-name="Alpha" unicode="A" horiz-adv-x="750" 
d="M716 11v8q0 12 -11 12q-21 0 -39.5 0.5t-29.5 5.5q-8 4 -12.5 12.5t-9.5 21.5l-220 635q-4 11 -16 11h-8q-12 0 -16 -11l-210 -608q-11 -34 -37 -51q-14 -9 -30 -12.5t-34 -3.5q-11 0 -11 -12v-8q0 -11 11 -11q49 3 97.5 2.5t96.5 -2.5q11 0 11 11v8q0 12 -11 12
q-16 0 -30 4t-24 15q-17 17 -9 41l49 141h250l58 -169q5 -15 -8 -22q-13 -8 -29.5 -9t-35.5 -1q-11 0 -11 -12v-8q0 -11 11 -11q62 2 123 2.5t124 -2.5q11 0 11 11zM462 263h-229l115 330z" />
    <glyph glyph-name="Beta" unicode="B" horiz-adv-x="708" 
d="M651 183q0 37 -18 69t-47 55q-28 22 -60.5 34.5t-67.5 15.5q55 11 100 42q29 21 47 50.5t18 64.5q0 36 -18 66.5t-47 53.5q-33 26 -73.5 37.5t-82.5 11.5h-352q-11 0 -11 -11v-8q0 -11 11 -11q24 0 47 -1t34 -6t11 -29v-550q0 -24 -11 -30q-11 -5 -34 -5.5t-47 -0.5
q-11 0 -11 -12v-8q0 -11 11 -11h380q42 0 82.5 13t73.5 41q29 24 47 57.5t18 71.5zM531 514q0 -30 -12 -57t-34 -47q-23 -22 -51.5 -33t-59.5 -11h-155v251q0 14 1.5 21t3.5 10q6 5 36 5h142q55 0 91 -41q19 -20 28.5 -45.5t9.5 -52.5zM556 183q0 -30 -11.5 -58t-33.5 -50
q-22 -21 -50 -32.5t-59 -11.5h-142q-29 0 -36 4q-2 3 -3.5 10.5t-1.5 21.5v277h197q29 0 54.5 -12.5t44.5 -34.5q21 -23 31 -52.5t10 -61.5z" />
    <glyph glyph-name="Chi" unicode="C" horiz-adv-x="750" 
d="M724 11v8q0 12 -11 12q-20 0 -38.5 1t-31.5 6q-11 4 -19 13t-16 22l-208 310l135 200q23 34 58 52q18 10 38 14t40 4q12 0 12 11v8q0 11 -12 11q-54 -3 -106.5 -2.5t-106.5 2.5q-11 0 -11 -11v-8q0 -11 11 -11q30 0 47 -21q6 -8 6.5 -18.5t-4.5 -18.5l-125 -184l-143 212
q-2 2 -0.5 6.5t9.5 9.5q10 8 22 11t25 3q11 0 11 11v8q0 11 -11 11q-62 -2 -123 -2.5t-123 2.5q-11 0 -11 -11v-8q0 -11 11 -11q20 0 38.5 -1t31.5 -6q11 -5 19 -14t16 -22l180 -269l-163 -240q-11 -17 -25.5 -30.5t-32.5 -22.5q-17 -9 -37.5 -13t-40.5 -4q-11 0 -11 -12v-8
q0 -11 11 -11q54 3 106.5 2.5t106.5 -2.5q12 0 12 11v8q0 12 -12 12q-14 0 -26 5t-20 15q-7 8 -7.5 18.5t5.5 18.5l153 226l170 -254q2 -2 0.5 -6.5t-9.5 -9.5q-19 -13 -47 -13q-12 0 -12 -12v-8q0 -11 12 -11q62 2 123 2.5t123 -2.5q11 0 11 11z" />
    <glyph glyph-name="Delta" unicode="D" horiz-adv-x="833" 
d="M786 11l-346 695q-6 11 -18 11h-9q-13 0 -18 -11l-346 -695q-2 -4 0 -7.5t7 -3.5h723q5 0 7 3.5t0 7.5zM663 71h-550l275 552z" />
    <glyph glyph-name="Epsilon" unicode="E" horiz-adv-x="681" 
d="M651 246q0 9 -9 11h-5q-9 0 -11 -9q-5 -26 -10 -52.5t-12.5 -50t-18.5 -43.5t-26 -33q-33 -28 -77.5 -33t-92.5 -5h-126q-31 0 -36 4q-5 5 -5 32v271h85q30 0 55.5 -2.5t39.5 -15.5q14 -14 17 -37t3 -50q0 -11 11 -11h2q12 0 12 11v241q0 11 -12 11h-2q-11 0 -11 -11
q0 -27 -3 -50t-17 -37q-14 -13 -39.5 -15.5t-55.5 -2.5h-85v245q0 27 5 31q5 5 35 5h120q47 0 90 -4.5t71 -28.5q29 -25 39 -66t16 -86q2 -9 11 -9h4q10 0 10 14l-28 201q-2 10 -11 10h-537q-11 0 -11 -12v-8q0 -11 11 -11q25 0 47.5 -1t33.5 -6t11 -29v-547q0 -24 -11 -30
q-11 -5 -33.5 -5.5t-47.5 -0.5q-11 0 -11 -12v-8q0 -11 11 -11h551q9 0 11 9z" />
    <glyph glyph-name="Phi" unicode="F" horiz-adv-x="694" 
d="M651 342q0 45 -25.5 83t-63.5 64q-40 27 -85.5 41.5t-93.5 18.5v68q0 23 14 29q14 5 44 6t59 1q12 0 12 11v8q0 11 -12 11q-156 -5 -312 0q-11 0 -11 -11v-8q0 -11 11 -11q29 0 59 -1t44 -6q14 -6 14 -29v-69q-47 -4 -91 -18.5t-82 -40.5t-64 -64t-26 -83q0 -46 26 -84
t64 -64t82 -40.5t91 -18.5v-68q0 -24 -14 -29t-44 -6t-59 -1q-11 0 -11 -12v-8q0 -11 11 -11q156 6 312 0q11 0 11 11v8q0 12 -11 12q-29 0 -59 1t-44 6t-14 29v67q48 4 93.5 18.5t85.5 41.5q38 26 63.5 64t25.5 84zM557 342q0 -38 -11 -74t-39 -61q-26 -23 -57.5 -34.5
t-66.5 -15.5v369q35 -4 66.5 -15.5t57.5 -34.5q28 -25 39 -60.5t11 -73.5zM305 158q-32 4 -62.5 15.5t-55.5 33.5q-28 25 -39 61t-11 74t11 73.5t39 60.5q25 22 55.5 33.5t62.5 16.5v-368z" />
    <glyph glyph-name="Gamma" unicode="G" horiz-adv-x="617" 
d="M581 470l-28 201q0 10 -11 10h-495q-11 0 -11 -12v-8q0 -11 11 -11q25 0 47.5 -1t33.5 -6t11 -29v-547q0 -24 -11 -30q-11 -5 -33.5 -5.5t-47.5 -0.5q-11 0 -11 -12v-8q0 -11 11 -11q74 3 146.5 2.5t146.5 -2.5q11 0 11 11v8q0 12 -11 12q-29 0 -59.5 1t-44.5 6t-14 29
v547q0 27 5 31q5 5 36 5h98q42 0 79.5 -4.5t64.5 -28.5q26 -23 35.5 -64.5t15.5 -87.5q2 -9 11 -9h5q9 0 9 14z" />
    <glyph glyph-name="Eta" unicode="H" horiz-adv-x="750" 
d="M712 11v8q0 12 -11 12q-25 0 -47.5 0.5t-33.5 5.5q-11 6 -11 30v550q0 24 11 29t33.5 6t47.5 1q11 0 11 11v8q0 11 -11 11q-134 -5 -267 0q-11 0 -11 -11v-8q0 -11 11 -11q25 0 47.5 -1t33.5 -6t11 -29v-246h-304v246q0 24 11 29t33.5 6t47.5 1q11 0 11 11v8q0 11 -11 11
q-134 -5 -267 0q-11 0 -11 -11v-8q0 -11 11 -11q25 0 47.5 -1t33.5 -6t11 -29v-550q0 -24 -11 -30q-11 -5 -33.5 -5.5t-47.5 -0.5q-11 0 -11 -12v-8q0 -11 11 -11q133 6 267 0q11 0 11 11v8q0 12 -11 12q-25 0 -47.5 0.5t-33.5 5.5q-11 6 -11 30v273h304v-273q0 -24 -11 -30
q-11 -5 -33.5 -5.5t-47.5 -0.5q-11 0 -11 -12v-8q0 -11 11 -11q133 6 267 0q11 0 11 11z" />
    <glyph glyph-name="Iota" unicode="I" horiz-adv-x="361" 
d="M329 11v8q0 12 -11 12q-26 0 -50 0.5t-35 5.5q-12 6 -12 30v550q0 24 12 29q11 5 35 6t50 1q11 0 11 11v8q0 11 -11 11q-139 -5 -277 0q-11 0 -11 -11v-8q0 -11 11 -11q26 0 50.5 -1t35.5 -6t11 -29v-550q0 -24 -11 -30q-11 -5 -35.5 -5.5t-50.5 -0.5q-11 0 -11 -12v-8
q0 -11 11 -11q138 6 277 0q11 0 11 11z" />
    <glyph glyph-name="theta1" unicode="J" horiz-adv-x="579" 
d="M559 333q1 5 -1 9t-7 5q-12 2 -24 4.5t-24 5.5q-1 62 -11.5 123t-37.5 118q-9 19 -21 38.5t-27.5 35t-35 25t-42.5 9.5q-26 0 -46.5 -12.5t-34 -33t-20.5 -46t-7 -51.5q0 -43 17 -76t45.5 -58.5t66.5 -44t80 -31.5q0 -64 -3 -126t-22 -122q-12 -38 -29 -66t-47 -28
q-23 0 -44.5 9t-33.5 28q-18 26 -22 58t-4 66v151q0 24 -9 46t-25 38t-37.5 25.5t-45.5 9.5q-27 0 -41 -16t-20 -39t-6.5 -50.5t-0.5 -49.5q0 -10 10 -10h5q10 0 10 10q0 28 1 52t5.5 42t13 28t23.5 10q26 0 38 -28t12 -68v-151q0 -36 8 -72.5t34 -65.5q25 -27 59.5 -36
t69.5 -9q23 0 42 9.5t34.5 25t28 34.5t21.5 39q26 56 37 116t12 121l45 -9q9 -2 11 8zM429 377q-39 12 -72.5 29t-58 40t-39 52t-14.5 65q0 24 6 45.5t16.5 38t26 26.5t34.5 10q30 0 47 -28t29 -66q17 -51 21 -104.5t4 -107.5z" />
    <glyph glyph-name="Kappa" unicode="K" 
d="M734 11v8q0 12 -11 12q-17 0 -32 1t-27 9q-13 8 -25 24.5t-25 35.5l-216 318l170 162q17 16 35.5 30t38.5 24q16 8 33 13t34 5q11 0 11 11v8q0 11 -11 11q-18 -2 -36 -2h-35q-29 1 -59 1t-59 1q-11 0 -11 -11v-8q0 -11 11 -11q31 0 40 -19q9 -17 -11 -37l-327 -312v332
q0 24 11 29t33.5 6t47.5 1q11 0 11 11v8q0 11 -11 11q-134 -5 -267 0q-11 0 -11 -11v-8q0 -11 11 -11q25 0 47.5 -1t33.5 -6t11 -29v-550q0 -24 -11 -30q-11 -5 -33.5 -5.5t-47.5 -0.5q-11 0 -11 -12v-8q0 -11 11 -11q133 6 267 0q11 0 11 11v8q0 12 -11 12q-25 0 -47.5 0.5
t-33.5 5.5q-11 6 -11 30v183l121 116l189 -278q10 -15 14 -25.5t-1 -18.5q-5 -9 -17.5 -11t-32.5 -2q-11 0 -11 -12v-8q0 -11 11 -11q57 2 114 3t114 -3q11 0 11 11z" />
    <glyph glyph-name="Lambda" unicode="L" horiz-adv-x="694" 
d="M661 11v8q0 12 -12 12q-18 0 -34 0.5t-25 5.5q-8 4 -11.5 12t-8.5 21l-204 636q-4 11 -15 11h-9q-11 0 -15 -11l-196 -608q-5 -16 -13 -29t-20 -22q-11 -9 -25 -12.5t-30 -3.5q-11 0 -11 -12v-8q0 -11 11 -11q42 3 84 3q49 0 99 -3q12 0 12 11v8q0 12 -12 12q-16 0 -30 4
t-25 15q-18 18 -10 41l158 490l166 -518q2 -6 -0.5 -12.5t-8.5 -9.5q-14 -8 -30 -9t-35 -1q-12 0 -12 -12v-8q0 -11 12 -11q60 2 119 2.5t119 -2.5q12 0 12 11z" />
    <glyph glyph-name="Mu" unicode="M" horiz-adv-x="917" 
d="M874 11v8q0 12 -11 12q-24 0 -47 0.5t-34 5.5q-10 6 -10 30v550q0 25 10 29q11 5 34 6t47 1q11 0 11 11v8q0 11 -11 11h-166q-11 0 -16 -11l-224 -579l-224 579q-3 11 -16 11h-166q-11 0 -11 -11v-8q0 -11 11 -11q25 0 47.5 -1t33.5 -6q11 -4 11 -29v-523q0 -14 -5 -26.5
t-16 -20.5q-14 -11 -32.5 -13.5t-38.5 -2.5q-11 0 -11 -12v-8q0 -11 11 -11q106 6 211 0q12 0 12 11v8q0 12 -12 12q-20 0 -38 2.5t-32 13.5q-11 8 -16 20.5t-5 26.5v553l246 -636q4 -11 15 -11q10 0 16 11l249 644v-588q0 -24 -11 -30q-11 -5 -34 -5.5t-47 -0.5
q-11 0 -11 -12v-8q0 -11 11 -11q129 6 258 0q11 0 11 11z" />
    <glyph glyph-name="Nu" unicode="N" horiz-adv-x="750" 
d="M712 664v8q0 11 -11 11q-106 -4 -211 0q-11 0 -11 -11v-8q0 -11 11 -11q20 0 38 -3t32 -14q11 -8 16 -20.5t5 -26.5v-446l-358 535q-3 5 -9 5h-167q-11 0 -11 -11v-8q0 -11 11 -11q26 0 51 -1t41 -6v-552q0 -14 -5 -26.5t-16 -20.5q-14 -11 -32.5 -13.5t-38.5 -2.5
q-11 0 -11 -12v-8q0 -11 11 -11q106 6 211 0q11 0 11 11v8q0 12 -11 12q-20 0 -38 2.5t-32 13.5q-11 8 -16 20.5t-5 26.5v531q3 -3 5.5 -6.5t5.5 -8.5l405 -605q3 -5 9 -5h6q11 0 11 11v578q0 14 5 26.5t16 20.5q14 11 32.5 14t38.5 3q11 0 11 11z" />
    <glyph glyph-name="Omicron" unicode="O" horiz-adv-x="779" 
d="M721 339q0 72 -24.5 138.5t-72.5 120.5q-46 51 -106.5 79.5t-128.5 28.5t-129 -28.5t-106 -79.5q-48 -54 -72.5 -120.5t-24.5 -138.5q0 -71 24.5 -137t72.5 -118q46 -50 106.5 -78t128.5 -28t128.5 28t106.5 78q48 52 72.5 118t24.5 137zM624 355q0 -66 -13 -130.5
t-50 -119.5q-30 -45 -74.5 -73t-97.5 -28q-54 0 -98.5 28t-73.5 73q-37 55 -50 119.5t-13 130.5q0 62 14 121.5t49 109.5q31 43 75.5 69t96.5 26t96.5 -26t75.5 -69q36 -50 49.5 -109.5t13.5 -121.5z" />
    <glyph glyph-name="Pi" unicode="P" horiz-adv-x="750" 
d="M712 11v8q0 12 -11 12q-25 0 -47.5 0.5t-33.5 5.5q-11 6 -11 30v547q0 24 11 29t33.5 6t47.5 1q11 0 11 11v8q0 12 -11 12h-654q-11 0 -11 -12v-8q0 -11 11 -11q25 0 47.5 -1t33.5 -6t11 -29v-547q0 -24 -11 -30q-11 -5 -33.5 -5.5t-47.5 -0.5q-11 0 -11 -12v-8
q0 -11 11 -11q133 6 267 0q11 0 11 11v8q0 12 -11 12q-25 0 -47.5 0.5t-33.5 5.5q-11 6 -11 30v583h304v-583q0 -24 -11 -30q-11 -5 -33.5 -5.5t-47.5 -0.5q-11 0 -11 -12v-8q0 -11 11 -11q133 6 267 0q11 0 11 11z" />
    <glyph glyph-name="Theta" unicode="Q" horiz-adv-x="779" 
d="M721 339q0 72 -24.5 138.5t-72.5 120.5q-46 51 -106.5 79.5t-128.5 28.5t-129 -28.5t-106 -79.5q-48 -54 -72.5 -120.5t-24.5 -138.5q0 -71 24.5 -137t72.5 -118q46 -50 106.5 -78t128.5 -28t128.5 28t106.5 78q48 52 72.5 118t24.5 137zM630 339q0 -64 -14 -126
t-52 -114q-31 -44 -76 -71t-99 -27t-99 27t-77 71q-37 52 -51 114t-14 126q0 65 14 128t51 117q31 44 76.5 71.5t99.5 27.5t99 -27.5t76 -71.5q38 -54 52 -117t14 -128zM572 284v117q0 11 -11 11h-3q-11 0 -11 -11v-23h-316v23q0 11 -11 11h-3q-11 0 -11 -11v-117
q0 -11 11 -11h3q11 0 11 11v23h316v-23q0 -11 11 -11h3q11 0 11 11z" />
    <glyph glyph-name="Rho" unicode="R" horiz-adv-x="678" 
d="M623 497q0 39 -19 73t-50 59q-35 28 -78 41t-88 13h-339q-11 0 -11 -11v-8q0 -11 11 -11q24 0 47 -1t34 -6q10 -4 10 -29v-550q0 -24 -10 -30q-11 -5 -34 -5.5t-47 -0.5q-11 0 -11 -12v-8q0 -11 11 -11q132 6 266 0q11 0 11 11v8q0 12 -11 12q-24 0 -47 0.5t-34 5.5
q-10 6 -10 30v248h164q45 0 88 13t78 41q31 23 50 56.5t19 71.5zM526 497q0 -31 -6 -61t-29 -52q-26 -24 -59 -33t-68 -9h-143v275q0 26 5 31t35 5h103q35 0 68 -9t59 -33q23 -22 29 -52t6 -62z" />
    <glyph glyph-name="Sigma" unicode="S" horiz-adv-x="722" 
d="M666 224q0 9 -10 11h-4q-11 0 -11 -10q-6 -45 -20 -85t-46 -66q-15 -12 -39.5 -18.5t-54 -10t-61.5 -4t-63 -0.5h-238l253 293q5 7 0 14l-209 305h202q30 0 61 -0.5t59 -4t51.5 -10t38.5 -18.5q32 -26 46 -66.5t20 -85.5q2 -10 11 -10h4q10 2 10 11l-28 205q-2 9 -11 9
h-559q-11 0 -11 -11v-8q0 -3 2 -6l244 -356l-244 -284q-2 -2 -2 -7t3 -8q4 -3 8 -3h559q9 0 11 10z" />
    <glyph glyph-name="Tau" unicode="T" horiz-adv-x="721" 
d="M686 464l-20 204q0 10 -11 10h-586q-10 0 -12 -10l-19 -204q0 -11 10 -11h4q9 0 11 10q2 23 5 46t7 43.5t10.5 37t16.5 25.5q21 20 51 26t63 6h64q30 0 35 -5q5 -4 5 -31v-544q0 -24 -16 -29q-8 -3 -21.5 -4t-29.5 -2t-34 -1h-33q-11 0 -11 -12v-8q0 -11 11 -11
q176 6 352 0q11 0 11 11v8q0 12 -11 12h-34q-17 0 -33 1t-29.5 2t-21.5 4q-16 5 -16 29v544q0 27 5 31q5 5 35 5h64q33 0 63 -6t51 -26q10 -9 16.5 -25.5t10.5 -37t7 -43.5t5 -46q2 -10 11 -10h4q10 0 10 11z" />
    <glyph glyph-name="Upsilon" unicode="U" horiz-adv-x="761" 
d="M743 664v8q0 11 -11 11q-48 -3 -94.5 -2.5t-94.5 2.5q-12 0 -12 -11v-8q0 -11 12 -11q14 0 26 -4t19 -14q5 -8 4 -18.5t-8 -21.5l-174 -281l-191 309q-5 7 -4 12.5t4 7.5q10 7 25 8.5t34 1.5q11 0 11 11v8q0 11 -11 11q-63 -2 -124.5 -2.5t-123.5 2.5q-11 0 -11 -11v-8
q0 -11 11 -11q20 0 38.5 -1t30.5 -6q10 -4 17.5 -13.5t15.5 -21.5l209 -338v-206q0 -24 -11 -30q-11 -5 -34 -5.5t-47 -0.5q-11 0 -11 -12v-8q0 -11 11 -11q132 6 264 0q11 0 11 11v8q0 12 -11 12q-25 0 -47.5 0.5t-33.5 5.5q-11 6 -11 30v206l192 310q20 34 52 53
q31 17 67 17q11 0 11 11z" />
    <glyph glyph-name="sigma1" unicode="V" horiz-adv-x="417" 
d="M356 425q-25 11 -50 14t-51 3q-43 0 -83 -14t-70.5 -39t-49 -60t-18.5 -77q0 -55 32 -98.5t81 -67.5l148 -72q25 -12 35 -29.5t10 -32.5q0 -16 -9 -27t-21 -11q-25 0 -50 11q-4 2 -8.5 0t-6.5 -5.5t-1.5 -7.5t6.5 -7q31 -13 60 -13q33 0 53.5 21.5t24 51t-11 60.5
t-52.5 49l-159 77q-38 18 -62.5 51t-24.5 73q0 32 14.5 58.5t39 45.5t56.5 29.5t67 10.5q23 0 44.5 -6.5t44.5 -16.5q7 -3 12.5 0t7.5 8.5t0.5 11.5t-8.5 9z" />
    <glyph glyph-name="Omega" unicode="W" horiz-adv-x="722" 
d="M676 147q0 9 -9 11h-5q-9 0 -11 -8q-8 -34 -15 -57t-10 -25q-6 -5 -25.5 -6t-45.5 -1h-69q12 51 41 97.5t60 93.5t54.5 96.5t23.5 107.5q0 53 -25 98.5t-65 78.5q-46 37 -101.5 55t-113.5 18t-113.5 -18t-100.5 -55q-41 -33 -65.5 -78.5t-24.5 -98.5q0 -58 23.5 -107.5
t54 -96.5t59.5 -93.5t41 -97.5h-69q-26 0 -45.5 1t-25.5 6q-3 2 -10 25t-15 57q-2 8 -11 8h-5q-9 -2 -9 -11l34 -139q2 -8 11 -8h163q10 0 10 11q0 59 -17 114.5t-37.5 110t-37.5 109t-17 111.5q0 45 13.5 87t42.5 74t68.5 49t82.5 17t82.5 -17t68.5 -49t42.5 -74t13.5 -87
q0 -57 -17 -111.5t-37.5 -109t-37.5 -110t-17 -114.5q0 -11 11 -11h162q9 0 11 8z" />
    <glyph glyph-name="Xi" unicode="X" horiz-adv-x="667" 
d="M618 536q1 34 -2.5 66.5t-5.5 64.5q0 11 -12 11h-530q-11 0 -11 -11q-2 -33 -5.5 -66t-3.5 -65q0 -11 11 -11h3q11 0 11 11q2 27 4.5 47.5t7.5 25.5q1 1 28.5 2t86.5 1h266q115 0 115 -3q5 -5 7.5 -25.5t4.5 -46.5q2 -12 12 -12h2q11 0 11 11zM527 279v147q0 11 -11 11
h-3q-11 0 -11 -11v-41h-337v41q0 11 -11 11h-3q-11 0 -11 -11v-147q0 -11 11 -11h3q11 0 11 11v40h337v-40q0 -11 11 -11h3q11 0 11 11zM624 152q0 11 -11 11h-3q-11 0 -11 -10q-2 -31 -4.5 -54.5t-7.5 -28.5q-2 -2 -32 -3t-86 -1h-271q-57 0 -87 1t-31 3q-5 5 -7.5 28.5
t-4.5 54.5q-2 12 -15 10q-5 0 -8 -3.5t-2 -8.5l8 -141q0 -10 12 -10h542q9 0 11 11q2 35 5 70.5t3 70.5z" />
    <glyph glyph-name="Psi" unicode="Y" horiz-adv-x="681" 
d="M676 543q0 12 -11 12h-56q-25 0 -41 -14t-25.5 -35t-13 -46.5t-3.5 -49.5q0 -52 -10 -101t-39 -89q-18 -23 -43 -38.5t-54 -22.5v458q0 23 14 29q14 5 44 6t59 1q11 0 11 11v8q0 11 -11 11q-156 -4 -313 0q-11 0 -11 -11v-8q0 -11 11 -11q29 0 59.5 -1t44.5 -6
q14 -7 14 -29v-457q-28 6 -52 21.5t-41 38.5q-29 41 -38.5 90t-9.5 100q0 24 -3.5 49.5t-13 46.5t-25.5 35t-41 14h-56q-11 0 -11 -12q0 -11 11 -11q16 0 28 -10t19 -26.5t10.5 -38.5t3.5 -47q0 -55 15 -108.5t53 -95.5q29 -32 68.5 -49t82.5 -22v-68q0 -24 -14 -29
t-44.5 -6t-59.5 -1q-11 0 -11 -12v-8q0 -11 11 -11q157 6 313 0q11 0 11 11v8q0 12 -11 12q-29 0 -59.5 1t-43.5 6q-14 5 -14 29v68q43 5 83.5 22t71.5 49q38 42 53.5 95.5t15.5 108.5q0 25 3.5 47t10.5 38.5t18.5 26.5t28.5 10q11 0 11 11z" />
    <glyph glyph-name="Zeta" unicode="Z" horiz-adv-x="611" 
d="M559 256q0 9 -10 11h-4q-11 0 -11 -11q-2 -26 -4.5 -51.5t-8 -48.5t-15 -43t-25.5 -35q-31 -30 -75 -37.5t-92 -7.5h-162l400 624q2 4 2 6v9q0 11 -12 11h-450q-11 0 -11 -10l-12 -204q0 -9 11 -11h3q11 0 11 11q3 42 13 79.5t39 63.5q29 27 70 34t86 7h155l-400 -625
q-1 -2 -1 -6v-11q0 -11 11 -11h464q11 0 11 10z" />
    <glyph glyph-name="bracketleft" unicode="[" horiz-adv-x="278" 
d="M255 -250v40h-98v920h98v40h-138v-1000h138z" />
    <glyph glyph-name="therefore" unicode="\" horiz-adv-x="667" 
d="M385 409q0 23 -15 38t-38 15q-22 0 -37 -15t-15 -38q0 -22 15 -37t37 -15q23 0 38 15t15 37zM634 -22q0 22 -15 37q-16 16 -37 16q-22 0 -38 -16q-15 -15 -15 -37q0 -23 15 -38q17 -15 38 -15q20 0 37 15q15 15 15 38zM136 -22q0 21 -16 37q-14 16 -37 16q-21 0 -37 -16
t-16 -37q0 -22 16 -38q17 -15 37 -15q22 0 37 15q16 16 16 38z" />
    <glyph glyph-name="bracketright" unicode="]" horiz-adv-x="278" 
d="M159 -250v1000h-137v-40h97v-920h-97v-40h137z" />
    <glyph glyph-name="perpendicular" unicode="^" 
d="M720 20q0 8 -6 14t-14 6h-292v605q0 8 -6 14t-14 6t-14 -6t-6 -14v-605h-292q-8 0 -14 -6t-6 -14t6 -14t14 -6h624q8 0 14 6t6 14z" />
    <glyph glyph-name="underscore" unicode="_" 
d="M692 -213q0 8 -6 14t-14 6h-569q-8 0 -14 -6t-6 -14t6 -14t14 -6h569q8 0 14 6t6 14z" />
    <glyph glyph-name="radicalex" unicode="`" horiz-adv-x="500" 
d="M998 894q0 8 -6 14t-14 6h-497q-8 0 -14 -6t-6 -14t6 -14t14 -6h497q8 0 14 6t6 14z" />
    <glyph glyph-name="alpha" unicode="a" horiz-adv-x="636" 
d="M634 60q0 10 -10 10h-5q-10 0 -10 -10q0 -20 -12.5 -34.5t-30.5 -14.5q-11 0 -20 10t-16.5 27.5t-14.5 40t-13 48.5q31 53 47.5 116t16.5 130q0 10 -10 10h-5q-10 0 -10 -10q0 -57 -12.5 -111t-35.5 -101l-20 79q-10 39 -29 74t-46.5 61t-62 41.5t-74.5 15.5
q-42 0 -79.5 -18t-66.5 -49q-29 -33 -44.5 -74t-15.5 -86q0 -44 15.5 -85.5t44.5 -73.5t66.5 -49.5t79.5 -17.5q59 0 107 22.5t86 62.5q17 -35 44.5 -60t67.5 -25q29 0 48.5 21t19.5 50zM444 98q-35 -41 -81 -64t-102 -23q-29 0 -53.5 16t-40.5 42q-20 32 -25.5 69.5
t-5.5 76.5q0 40 5.5 77.5t25.5 69.5q16 26 40.5 41.5t53.5 15.5q31 0 54.5 -15.5t41.5 -41.5t30.5 -59t21.5 -69l27 -110q2 -7 4 -13.5t4 -12.5z" />
    <glyph glyph-name="beta" unicode="b" horiz-adv-x="498" 
d="M458 209q0 44 -15 84t-45 72q-20 23 -49 39q10 6 20 18q24 23 36.5 53.5t12.5 63.5t-12.5 64t-36.5 54q-23 23 -53.5 36t-63.5 13q-50 0 -89 -23.5t-66 -62t-41.5 -88t-14.5 -101.5v-616q0 -9 10 -9h5q10 0 10 9v290q26 -53 75 -85.5t111 -32.5q42 0 79.5 18t66.5 48
q29 32 44.5 72t15.5 84zM286 402q-8 -3 -16.5 -5t-17.5 -2q-33 0 -44 2.5t-11 4.5t11 4t44 2q19 0 34 -6zM378 209q0 -39 -5.5 -75.5t-25.5 -67.5q-17 -25 -41.5 -40.5t-53.5 -15.5q-39 0 -73 16t-59 43t-39.5 63t-14.5 77v222q0 49 13 94.5t37 80.5t58.5 56t77.5 21
q23 0 42 -10.5t33 -29.5q15 -22 19.5 -48.5t4.5 -55.5t-4.5 -55.5t-19.5 -47.5q-6 -9 -13 -16q-31 11 -62 11h-20q-13 0 -26.5 -2.5t-23.5 -8.5t-10 -18t10 -18.5t23.5 -8.5t26.5 -2h20q35 0 64 13q18 -15 31 -34q20 -31 25.5 -67.5t5.5 -75.5z" />
    <glyph glyph-name="chi" unicode="c" horiz-adv-x="688" 
d="M662 -139q0 9 -9 9h-6q-10 0 -10 -9q0 -19 -12.5 -31.5t-29.5 -12.5q-16 0 -35.5 22.5t-40.5 51.5q-42 59 -77 121t-69 125l176 274q3 5 1.5 10t-5.5 7.5t-9 2t-8 -5.5l-169 -263q-31 57 -63 112.5t-70 109.5q-22 31 -57 44.5t-72 13.5q-28 0 -48.5 -19t-20.5 -48
q0 -9 10 -9h6q9 0 9 9q0 19 12.5 31.5t30.5 12.5q16 0 35.5 -22.5t40.5 -51.5q42 -59 77 -121t69 -125l-177 -274q-3 -5 -1.5 -10t5.5 -7.5t9 -2t8 5.5l170 263q31 -57 63 -112.5t70 -109.5q22 -31 57 -44.5t72 -13.5q28 0 48 19t20 48z" />
    <glyph glyph-name="delta" unicode="d" horiz-adv-x="422" 
d="M393 217q0 79 -26.5 137.5t-92.5 103.5l-95 66q-27 18 -34.5 45.5t0.5 52.5t29.5 43t53.5 18q31 0 57 -17t41 -46q3 -5 9 -5q7 0 10 1q5 3 5 9q0 3 -1 5q-18 34 -50.5 55t-70.5 21q-51 0 -85 -27t-47 -64.5t-3 -77.5t48 -67l54 -38q-49 -17 -86 -57q-29 -33 -44.5 -74.5
t-15.5 -85.5q0 -45 15.5 -86.5t44.5 -74.5q29 -31 66.5 -49t79.5 -18q39 0 65.5 21t42.5 54t23 74t7 81zM359 212q0 -39 -5.5 -75.5t-17.5 -64.5t-32 -45t-49 -17t-53 16t-41 42q-20 32 -25.5 69.5t-5.5 77.5q0 39 5.5 76.5t25.5 69.5q11 18 26.5 31.5t34.5 20.5l14 -10
q28 -20 51 -40t39 -42.5t24.5 -49t8.5 -59.5z" />
    <glyph glyph-name="epsilon" unicode="e" horiz-adv-x="417" 
d="M386 78q1 3 -1.5 7.5t-6.5 6.5t-7.5 0.5t-5.5 -8.5q-5 -19 -18.5 -31t-33 -18.5t-43.5 -8.5t-49 -2q-33 0 -64 6t-57 23q-21 14 -34 34t-13 43q0 24 10.5 45.5t29.5 37.5q8 7 19 14q20 -8 40.5 -11t40.5 -3h20q14 0 28 2t24.5 8.5t10.5 18.5t-10.5 18t-24.5 8.5t-28 2.5
h-20q-44 0 -82 -19q-10 5 -19 11q-17 12 -28 28t-11 36q0 18 13 32t33 24q28 14 59 19t63 5q27 0 53 -9.5t49 -24.5q10 -6 18.5 -3.5t13.5 10t4 16.5t-10 15q-29 19 -61 30.5t-67 11.5t-70 -8t-65 -28q-23 -14 -40.5 -37.5t-17.5 -52.5q0 -30 18 -52t42 -36
q-26 -19 -43 -47.5t-17 -61.5t16 -60.5t41 -47.5q29 -23 64 -33.5t72 -10.5q27 0 53.5 5.5t49 17.5t39.5 31t23 46zM251 242q0 -2 -11.5 -4.5t-46.5 -2.5q-25 0 -49 6q21 7 49 7q35 0 46.5 -2t11.5 -4z" />
    <glyph glyph-name="phi" unicode="f" horiz-adv-x="596" 
d="M552 215q0 48 -20 89.5t-55 72.5t-78 47.5t-90 18.5v242q0 9 -9 9h-6q-10 0 -10 -9v-242q-46 -2 -89 -18.5t-78 -47.5t-55 -72.5t-20 -89.5q0 -47 20 -88.5t55 -72.5t78 -47.5t89 -18.5v-184q0 -10 10 -10h6q9 0 9 10v184q47 2 90 18.5t78 47.5t55 72.5t20 88.5zM484 215
q0 -41 -11.5 -79t-37.5 -67q-25 -26 -57.5 -41.5t-68.5 -17.5v410q36 -2 68.5 -17t57.5 -42q26 -29 37.5 -67t11.5 -79zM284 10q-35 2 -67.5 17.5t-57.5 41.5q-26 29 -37.5 67t-11.5 79t11.5 79t37.5 67q25 27 57.5 42t67.5 17v-410z" />
    <glyph glyph-name="gamma" unicode="g" horiz-adv-x="500" 
d="M486 418q2 10 -7 12q-3 1 -8 1q-8 0 -10 -8q-20 -73 -34 -147.5t-23 -149.5q-18 74 -52 138q-16 31 -35 62.5t-43 57t-53 42t-66 16.5q-35 0 -63 -15.5t-47.5 -41t-30.5 -59t-11 -68.5q0 -9 10 -9h5q10 0 10 9q0 24 10 44.5t27.5 35.5t40.5 23.5t49 8.5q56 0 102 -33
t73 -84q26 -51 42 -104.5t24 -110.5q-2 -34 -3.5 -67.5t-1.5 -67.5q0 3 -0.5 -15t1 -41.5t6 -43.5t13.5 -20t13.5 20t5.5 43.5t0.5 41.5t-0.5 15q0 34 -2 68t-7 68q13 191 65 379z" />
    <glyph glyph-name="eta" unicode="h" horiz-adv-x="540" 
d="M500 -183v463q0 31 -8 62.5t-30 56.5q-20 23 -48.5 33t-57.5 10q-51 0 -83.5 -24t-52.5 -64q-11 38 -41.5 63t-71.5 25q-27 0 -41 -16t-20 -39t-6.5 -50.5t-0.5 -49.5q0 -10 10 -10h5q10 0 10 10q0 28 1 52t5.5 42t13 28t23.5 10q26 0 38 -28t12 -68v-301q0 -17 10.5 -25
t22.5 -8q13 0 23.5 8t10.5 25v275q14 56 45 89t87 33q36 0 55 -34q14 -23 18 -49.5t4 -55.5v-463q0 -17 10.5 -25.5t22.5 -8.5q13 0 23.5 8.5t10.5 25.5z" />
    <glyph glyph-name="iota" unicode="i" horiz-adv-x="318" 
d="M295 144q0 9 -9 9h-6q-10 0 -10 -9q0 -27 -9.5 -51.5t-26 -42.5t-39.5 -28.5t-49 -10.5q-24 0 -32.5 28t-3.5 67q10 76 12 151.5t2 150.5q0 17 -10.5 25.5t-23.5 8.5q-12 0 -22.5 -8.5t-10.5 -25.5q0 -75 -2 -149.5t-12 -149.5q-3 -24 4 -45.5t21 -38t34 -26.5t44 -10
q31 0 58.5 12.5t47.5 33.5t31.5 49t11.5 60z" />
    <glyph glyph-name="phi1" unicode="j" horiz-adv-x="611" 
d="M589 242q0 37 -10.5 73t-30 64.5t-48 45.5t-64.5 17q-49 0 -79.5 -28t-48 -71.5t-25.5 -96t-11 -102.5l-6 -91q-42 7 -79.5 23.5t-65.5 40.5t-44.5 55.5t-16.5 69.5q0 47 7 91.5t33 81.5q2 2 2 6q0 5 -4 8q-3 2 -11 2q-5 0 -8 -5q-29 -41 -36.5 -88.5t-7.5 -95.5
t18 -88.5t49 -72t72.5 -53t88.5 -31.5l-12 -180q-1 -18 9.5 -26.5t23.5 -8.5q14 0 24.5 8.5t9.5 26.5l-11 173q8 -1 16 -1h17q52 0 97 20t79 54.5t53.5 80.5t19.5 98zM564 242q0 -42 -18 -78t-49 -62t-71.5 -40.5t-85.5 -14.5h-19q-9 0 -18 1l-6 96q-3 46 4.5 89.5t25 77
t45 53.5t64.5 20q27 0 50.5 -11.5t41 -31t27 -45t9.5 -54.5z" />
    <glyph glyph-name="kappa" unicode="k" horiz-adv-x="540" 
d="M510 144q0 9 -9 9h-6q-10 0 -10 -9q0 -27 -2 -51t-8 -42.5t-16.5 -29t-27.5 -10.5q-29 0 -40.5 32.5t-11.5 77.5q0 39 -19.5 63.5t-51 39t-71.5 20.5t-82 8q24 15 45 36t41.5 42.5t41.5 40.5t45 29q-6 -20 4.5 -39t37.5 -19q22 0 33 14t11 30q0 17 -11 31t-33 14
q-29 0 -52 -11t-43.5 -27.5t-39 -37t-37 -39.5t-38.5 -35t-43 -23v150q0 17 -10.5 25.5t-23.5 8.5q-12 0 -22.5 -8.5t-10.5 -25.5v-386q0 -17 10.5 -25t22.5 -8q13 0 23.5 8t10.5 25v208q39 -2 74.5 -8t62 -18.5t42.5 -32.5t16 -50q0 -26 9 -50t24.5 -42t37.5 -29t48 -11
q27 0 42.5 15t23.5 38t10.5 50t2.5 52z" />
    <glyph glyph-name="lambda" unicode="l" horiz-adv-x="583" 
d="M571 -1q0 5 -5 8q-10 7 -21.5 23.5t-22.5 35.5l-344 567q-22 35 -61 48t-79 13q-11 0 -11 -11t11 -11q27 0 46 -22t37 -52l169 -279l-211 -278q-11 -14 -7 -27t15 -20.5t24.5 -6t22.5 16.5l173 288l158 -261q16 -27 45 -41q1 -1 4 -1h47q10 0 10 10z" />
    <glyph glyph-name="mu" unicode="m" horiz-adv-x="518" 
d="M507 144q0 9 -10 9h-5q-10 0 -10 -9q0 -28 -1 -52.5t-5.5 -42.5t-13 -28t-23.5 -10q-26 0 -38 28.5t-12 68.5v289q0 17 -10.5 25.5t-23.5 8.5q-12 0 -22.5 -8.5t-10.5 -25.5v-289v-6q-14 -41 -39.5 -66t-64.5 -25q-23 0 -43.5 10.5t-33.5 29.5q-17 26 -22.5 57t-5.5 64
v236q0 17 -10.5 25.5t-23.5 8.5q-12 0 -22.5 -8.5t-10.5 -25.5v-591q0 -17 10.5 -25.5t22.5 -8.5q13 0 23.5 8.5t10.5 25.5v202q23 -17 50 -23.5t55 -6.5q40 0 67.5 20.5t45.5 53.5q13 -32 42 -53t66 -21q27 0 41 15.5t20 39t6.5 50.5t0.5 50z" />
    <glyph glyph-name="nu" unicode="n" horiz-adv-x="512" 
d="M480 408q0 17 -10.5 25.5t-22.5 8.5t-22.5 -8.5t-10.5 -25.5q0 -63 -16 -122.5t-47 -109.5t-75 -87.5t-99 -56.5v399q0 5 -3.5 8.5t-8.5 2.5l-127 -11q-11 -2 -11 -12v-8q0 -11 11 -11q21 0 38 -1t25 -6q6 -5 7.5 -13.5t1.5 -23.5q0 -44 -2 -87.5t-3.5 -87t-0.5 -86.5
t6 -85q1 -5 4 -8t8 -2l15 2q3 -2 8 -2q73 16 134.5 54t106 92t69.5 121t25 141z" />
    <glyph glyph-name="omicron" unicode="o" horiz-adv-x="485" 
d="M447 215q0 45 -15 86t-45 74q-28 31 -65.5 49t-80.5 18q-42 0 -79.5 -18t-66.5 -49q-29 -33 -44.5 -74t-15.5 -86q0 -44 15.5 -85.5t44.5 -73.5t66.5 -49.5t79.5 -17.5q43 0 80 18t66 49q29 33 44.5 74t15.5 85zM367 215q0 -39 -5.5 -76.5t-25.5 -69.5q-17 -26 -41.5 -42
t-53.5 -16t-53.5 16t-40.5 42q-20 32 -25.5 69.5t-5.5 76.5q0 40 5.5 77.5t25.5 69.5q16 26 40.5 41.5t53.5 15.5t53.5 -15.5t41.5 -41.5q20 -32 25.5 -69.5t5.5 -77.5z" />
    <glyph glyph-name="pi" unicode="p" horiz-adv-x="596" 
d="M525 373q15 0 22 9t7 20t-7 20t-22 9h-359q-27 0 -48 -12t-36.5 -31.5t-25.5 -44t-14 -49.5q0 -7 7 -10h3h6q7 0 9 6q11 35 37.5 59t61.5 24h71q-2 -88 -15 -173t-33 -170q-4 -17 4.5 -27.5t20.5 -13t24 3t16 22.5q3 12 4.5 51.5t2 92t1 109.5t0.5 105h112
q0 -48 1.5 -98.5t8.5 -99.5t20.5 -93t37.5 -79q9 -14 22.5 -14.5t24 6.5t14 19.5t-5.5 26.5q-51 73 -73 157.5t-25 174.5h126z" />
    <glyph glyph-name="pi" unicode="&#x3c0;" horiz-adv-x="596" 
d="M525 373q15 0 22 9t7 20t-7 20t-22 9h-359q-27 0 -48 -12t-36.5 -31.5t-25.5 -44t-14 -49.5q0 -7 7 -10h3h6q7 0 9 6q11 35 37.5 59t61.5 24h71q-2 -88 -15 -173t-33 -170q-4 -17 4.5 -27.5t20.5 -13t24 3t16 22.5q3 12 4.5 51.5t2 92t1 109.5t0.5 105h112
q0 -48 1.5 -98.5t8.5 -99.5t20.5 -93t37.5 -79q9 -14 22.5 -14.5t24 6.5t14 19.5t-5.5 26.5q-51 73 -73 157.5t-25 174.5h126z" />
    <glyph glyph-name="theta" unicode="q" horiz-adv-x="415" 
d="M396 347q0 65 -11.5 128.5t-40.5 122.5q-10 20 -23.5 39.5t-30 34.5t-36 24.5t-43.5 9.5t-44 -9.5t-36.5 -24.5t-29.5 -34.5t-23 -39.5q-29 -59 -40.5 -122.5t-11.5 -128.5t11.5 -128.5t40.5 -122.5q10 -20 23 -39t29.5 -34t36.5 -24.5t44 -9.5t43.5 9.5t36 24.5t30 34
t23.5 39q29 59 40.5 122.5t11.5 128.5zM315 362h-209q0 59 4 116t22 111q6 19 13.5 36t17 30t21.5 20.5t27 7.5q30 0 48 -28t31 -66q17 -54 21 -111t4 -116zM315 332q0 -59 -3.5 -115.5t-21.5 -111.5q-12 -38 -30.5 -66t-48.5 -28q-15 0 -27 7.5t-21.5 20.5t-17 30t-13.5 36
q-18 55 -22 111.5t-4 115.5h209z" />
    <glyph glyph-name="rho" unicode="r" horiz-adv-x="436" 
d="M400 215q0 44 -13 85t-41 75q-24 29 -58 48t-73 19q-38 0 -71 -19.5t-56 -48.5q-26 -35 -39 -75.5t-13 -83.5v-398q0 -17 10.5 -25.5t22.5 -8.5q13 0 23.5 8.5t10.5 25.5v238q20 -28 48.5 -47t63.5 -19q39 0 73 18.5t58 48.5q28 34 41 75t13 84zM319 215q0 -39 -4 -76.5
t-21 -70.5q-13 -24 -33.5 -40.5t-45.5 -16.5q-29 0 -52.5 16.5t-40.5 41.5q-6 8 -10.5 17t-8.5 18v111q0 40 5.5 77.5t23.5 69.5q14 25 35.5 41t47.5 16q25 0 45.5 -16t33.5 -41q17 -32 21 -69.5t4 -77.5z" />
    <glyph glyph-name="sigma" unicode="s" horiz-adv-x="554" 
d="M487 373q14 0 21 9t7 20t-7 20t-21 9h-249q-41 0 -76.5 -19t-60.5 -49q-29 -35 -42.5 -76.5t-13.5 -85.5q0 -42 14.5 -80.5t42.5 -69.5q26 -29 61.5 -45.5t74.5 -16.5q40 0 75.5 16.5t61.5 45.5q28 31 42 69.5t14 80.5q0 48 -16 92.5t-49 79.5h121zM364 201q0 -37 -6 -72
t-26 -64q-17 -24 -41 -39t-53 -15q-2 0 -3 -0.5t3 0.5q-28 0 -52 15t-41 39q-20 29 -26.5 64t-6.5 72q0 35 6 68t26 59q17 22 41.5 33.5t52.5 11.5t52.5 -11.5t41.5 -33.5q20 -26 26 -59t6 -68z" />
    <glyph glyph-name="tau" unicode="t" horiz-adv-x="513" 
d="M460 373q14 0 21 9t7 20t-7 20t-21 9h-304q-27 0 -48 -12t-36.5 -31.5t-25.5 -44t-14 -49.5q0 -7 7 -10h3h6q7 0 9 6q11 35 37.5 59t61.5 24h96l-19 -350q-1 -18 9.5 -26.5t23.5 -8.5t23.5 8.5t9.5 26.5l-19 350h180z" />
    <glyph glyph-name="upsilon" unicode="u" horiz-adv-x="540" 
d="M509 245q0 23 -0.5 51t-4.5 54.5t-13.5 49t-26.5 34.5t-32 7.5t-24 -17t-8 -28.5t18 -28q30 -21 48 -53.5t18 -69.5q0 -43 -9 -85t-27 -75t-44.5 -53.5t-60.5 -20.5q-29 0 -54.5 10t-42.5 31q-20 24 -27.5 55.5t-7.5 64.5q0 32 4.5 72t9.5 78q3 24 -4 45.5t-21 38
t-34 26.5t-44 10q-27 0 -45.5 -14t-29.5 -36.5t-16 -50t-5 -54.5q0 -10 10 -10h5q10 0 10 10q0 26 4 50t12.5 42t22 29t32.5 11q23 0 32 -27.5t4 -67.5q-5 -38 -9.5 -78.5t-4.5 -73.5q0 -38 12 -73.5t41 -61.5q30 -28 68.5 -38t77.5 -10q42 0 73 23.5t52 60.5t31 82.5
t10 89.5z" />
    <glyph glyph-name="omega1" unicode="v" horiz-adv-x="818" 
d="M765 242q0 35 -9.5 68t-26.5 63h36q15 0 22 9t7 20t-7 20t-22 9h-609q-27 0 -48 -12t-36.5 -31.5t-25.5 -44t-14 -49.5q0 -7 7 -10h3h6q7 0 9 6q11 35 37.5 59t61.5 24h50q-23 -40 -36.5 -83.5t-13.5 -90.5q0 -36 6 -73.5t20.5 -68t38 -49.5t59.5 -19q35 0 63.5 13
t50.5 36t37.5 54t25.5 66q6 -35 16 -65.5t27 -53.5t41 -36.5t57 -13.5q43 0 75 22.5t52 58.5t30 81t10 91zM740 242q0 -38 -10 -73.5t-28 -62.5t-44.5 -43t-59.5 -16q-35 0 -59 20t-38.5 53t-21 76t-6.5 89q0 9 -10 9h-5q-10 0 -10 -9q0 -47 -11.5 -90t-33 -76t-53 -52.5
t-70.5 -19.5q-24 0 -42.5 12.5t-31 33.5t-19 48.5t-6.5 57.5q0 46 14.5 89.5t38.5 84.5h467q18 -31 28.5 -63.5t10.5 -67.5z" />
    <glyph glyph-name="omega" unicode="w" horiz-adv-x="611" 
d="M581 242q0 23 -0.5 51.5t-4.5 55.5t-13.5 50t-26.5 35q-16 12 -31.5 7.5t-24.5 -16.5t-8 -28t17 -28q32 -23 49.5 -56t17.5 -71q0 -36 -10 -69t-28.5 -57.5t-44.5 -39.5t-57 -15q-35 0 -59 23t-37 59q9 48 9 99v12t-2 16t-7.5 14.5t-15.5 6.5q-11 0 -16 -6.5t-7 -14.5
t-2 -16v-12q0 -24 1.5 -48.5t5.5 -48.5q-15 -38 -42.5 -61t-65.5 -23q-30 0 -53 15t-39.5 40t-25 57.5t-8.5 68.5q0 45 10.5 87.5t30.5 83.5q3 6 0.5 10t-7 6t-9 1t-7.5 -7q-20 -42 -31.5 -87.5t-11.5 -93.5q0 -45 7.5 -90t25.5 -81t47 -59t71 -23q46 0 76.5 26t47.5 68
q14 -41 41.5 -67.5t72.5 -26.5q43 0 74.5 22.5t51.5 58.5t29.5 81t9.5 91z" />
    <glyph glyph-name="xi" unicode="x" horiz-adv-x="472" 
d="M375 -27l-194 69q-43 15 -73 43.5t-30 69.5q0 47 22 86t59 61q19 -6 39.5 -9.5t41.5 -3.5h23t32.5 2t29 8.5t12.5 18.5q0 13 -12.5 19t-29 8t-32.5 2h-23q-37 0 -70 -12q-26 20 -41 51t-15 68q0 42 19 76.5t51 51.5q24 -21 56 -21h23t32.5 2t29 8.5t12.5 18.5t-12.5 18.5
t-29 8.5t-32.5 2h-23q-14 0 -26.5 -1.5t-25.5 -3.5q-19 28 -19 71q0 6 -4 9t-9 3q-4 0 -8 -3t-4 -9q0 -43 20 -78q-27 -8 -51 -22t-42 -33.5t-28 -44t-10 -53.5q0 -48 27 -83.5t69 -56.5q-44 -29 -70 -76t-26 -104q0 -29 11 -53.5t29.5 -45t42.5 -35.5t50 -24l187 -66
q25 -9 35 -24.5t9 -30.5t-10 -26.5t-23 -11.5q-27 0 -53.5 9.5t-49.5 25.5q-9 6 -16 -2.5t3 -15.5q26 -17 55 -28.5t61 -11.5q35 0 56 22.5t24 52.5t-13 60t-56 44zM312 590q0 -2 -15 -4.5t-57 -2.5q-18 0 -31 9q17 5 31 5q42 0 57 -2.5t15 -4.5zM312 318q0 -2 -15 -4
t-57 -2q-24 0 -42 7q21 6 42 6q42 0 57 -2.5t15 -4.5z" />
    <glyph glyph-name="psi" unicode="y" horiz-adv-x="651" 
d="M620 245q0 23 -0.5 51t-4.5 54.5t-13.5 49t-26.5 34.5t-32 7.5t-24 -17t-8 -28.5t18 -28q30 -21 48 -53.5t18 -69.5q0 -44 -15.5 -86t-42 -75t-62.5 -53t-76 -20h-16v674q0 9 -9 9h-6q-10 0 -10 -9v-672q-28 4 -53 13t-46 27q-25 22 -36.5 53t-11.5 66q0 32 4.5 72
t9.5 78q3 24 -4 45.5t-21 38t-34 26.5t-44 10q-27 0 -45.5 -14t-29.5 -36.5t-16 -50t-5 -54.5q0 -10 10 -10h5q10 0 10 10q0 26 4 50t12.5 42t22 29t32.5 11q23 0 32 -27.5t4 -67.5q-5 -38 -9.5 -78.5t-4.5 -73.5q0 -41 17.5 -77t50.5 -59t70.5 -33t75.5 -13v-186
q0 -10 10 -10h6q9 0 9 10v185h16q46 0 86.5 22t70.5 58t47 82t17 94z" />
    <glyph glyph-name="zeta" unicode="z" horiz-adv-x="472" 
d="M364 -206q38 0 60.5 27.5t23 64.5t-23.5 73t-78 53l-116 36q-80 25 -114 87t-34 151q0 47 11 92t30 84t43 69.5t50 47.5q11 -8 24 -13t28 -5h23t32 2t28.5 8.5t12.5 18.5t-12.5 18.5t-28.5 8.5t-32 2h-23q-23 0 -48 -11q-11 14 -17 34t-6 43q0 6 -4 9t-9 3q-4 0 -8 -3
t-4 -9q0 -24 6.5 -47t20.5 -41q-33 -20 -63 -55t-53 -79t-36.5 -95t-13.5 -103q0 -104 42.5 -178t140.5 -104l111 -34q39 -12 56 -34t18.5 -44t-9.5 -38t-28 -16q-24 0 -46.5 9.5t-42.5 25.5q-4 3 -8.5 2t-7 -4t-3 -7.5t4.5 -8.5q22 -17 48 -28.5t55 -11.5zM339 590
q0 -2 -14.5 -4.5t-56.5 -2.5q-15 0 -28 8q13 6 28 6q42 0 56.5 -2.5t14.5 -4.5z" />
    <glyph glyph-name="braceleft" unicode="{" horiz-adv-x="500" 
d="M426 -240v3q0 9 -10 9q-27 0 -51 8t-42.5 23t-29.5 35t-11 44v244q0 25 -9.5 45t-25.5 35.5t-37.5 26.5t-46.5 17q25 6 46.5 17t37.5 26.5t25.5 35.5t9.5 45v244q0 24 11 44t29.5 35t42.5 23t51 8q10 0 10 9v3q0 10 -10 10q-36 0 -72 -7.5t-64.5 -23.5t-46 -41t-17.5 -60
v-244q0 -24 -11 -45t-29 -36t-42.5 -23.5t-51.5 -8.5q-10 0 -10 -10v-2q0 -10 10 -10q27 0 51.5 -8.5t42.5 -23.5t29 -36t11 -45v-244q0 -35 17.5 -60t46 -41t64.5 -23.5t72 -7.5q10 0 10 10z" />
    <glyph glyph-name="bar" unicode="|" horiz-adv-x="278" 
d="M158 -230v960q0 8 -6 14t-14 6t-14 -6t-6 -14v-960q0 -8 6 -14t14 -6t14 6t6 14z" />
    <glyph glyph-name="braceright" unicode="}" horiz-adv-x="500" 
d="M426 249v2q0 10 -10 10q-27 0 -51.5 8.5t-42.5 23.5t-29 36t-11 45v244q0 35 -18 60t-46.5 41t-64 23.5t-71.5 7.5q-10 0 -10 -10v-3q0 -9 10 -9q27 0 51 -8t42.5 -23t29.5 -35t11 -44v-244q0 -50 34.5 -80.5t84.5 -43.5q-50 -13 -84.5 -43.5t-34.5 -80.5v-244
q0 -24 -11 -44t-29.5 -35t-42.5 -23t-51 -8q-10 0 -10 -9v-3q0 -10 10 -10q36 0 71.5 7.5t64 23.5t46.5 41t18 60v244q0 24 11 45t29 36t42.5 23.5t51.5 8.5q10 0 10 10z" />
    <glyph glyph-name="similar" unicode="~" 
d="M720 339q0 11 -4 19.5t-10 8.5t-10 -8.5t-4 -19.5q0 -26 -9.5 -52.5t-27 -48.5t-43 -35.5t-58.5 -13.5t-60.5 13t-53 33t-50 43t-50.5 43t-55 33t-63 13t-64.5 -15.5t-53 -43t-35.5 -65t-13 -82.5q0 -11 4 -19.5t10 -8.5q5 0 9.5 8.5t4.5 19.5q0 26 9.5 52.5t27 48.5
t43 35.5t58.5 13.5q32 0 59.5 -13t53 -33t50 -43t50.5 -43t55.5 -33t63.5 -13t64.5 15.5t53 43t35.5 65t13 82.5z" />
    <glyph glyph-name="circlemultiply" unicode="&#xc4;" 
d="M720 250q0 66 -25 127t-72 109q-47 47 -108 72t-127 25t-127 -25t-108 -72q-47 -48 -72 -109t-25 -127t25 -127t72 -109q47 -47 108 -72t127 -25t127 25t108 72q47 48 72 109t25 127zM596 477l-208 -209l-208 209q42 39 96 60t112 21t112 -21t96 -60zM695 250
q0 -59 -21 -112.5t-60 -96.5l-208 209l208 209q39 -43 60 -96.5t21 -112.5zM370 250l-208 -209q-39 43 -60 96.5t-21 112.5t21 112.5t60 96.5zM596 23q-42 -39 -96 -60t-112 -21t-112 21t-96 60l208 209z" />
    <glyph glyph-name="circleplus" unicode="&#xc5;" 
d="M720 250q0 66 -25 127t-72 109q-47 47 -108 72t-127 25t-127 -25t-108 -72q-47 -48 -72 -109t-25 -127t25 -127t72 -109q47 -47 108 -72t127 -25t127 25t108 72q47 48 72 109t25 127zM695 263h-295v295q58 -2 111 -25t94 -65q42 -42 65 -94.5t25 -110.5zM375 263h-294
q2 58 25 110.5t65 94.5q41 42 93.5 65t110.5 25v-295zM695 238q-2 -59 -25 -111.5t-65 -94.5q-41 -42 -94 -65t-111 -25v296h295zM375 -58q-58 2 -110.5 25t-93.5 65q-42 42 -65 94.5t-25 111.5h294v-296z" />
    <glyph glyph-name="intersection" unicode="&#xc7;" horiz-adv-x="667" 
d="M609 -2v386q0 51 -24 91t-63 67.5t-89 41.5t-101 14t-100.5 -14t-88.5 -41.5t-63 -67.5t-24 -91v-386q0 -8 6 -14t14 -6t14 6t6 14v386q0 39 19 71.5t51.5 55t75.5 35t90 12.5t90 -12.5t75.5 -35t52 -55t19.5 -71.5v-386q0 -8 6 -14t14 -6t14 6t6 14z" />
    <glyph glyph-name="propersuperset" unicode="&#xc9;" 
d="M692 250q0 61 -24.5 114t-66 92t-96.5 61.5t-117 22.5h-285q-8 0 -14 -6t-6 -14t6 -14t14 -6h285q54 0 102 -19.5t84 -53t57 -79.5t21 -98q0 -53 -21 -98.5t-57 -79t-84 -53t-102 -19.5h-285q-8 0 -14 -6t-6 -14t6 -14t14 -6h285q62 0 117 22t96.5 61t66 92t24.5 115z
" />
    <glyph glyph-name="gradient" unicode="&#xd1;" horiz-adv-x="833" 
d="M786 672q2 4 0 7.5t-7 3.5h-723q-5 0 -7 -3.5t0 -7.5l346 -694q5 -11 18 -11h9q13 0 18 11zM722 612l-275 -552l-275 552h550z" />
    <glyph glyph-name="radical" unicode="&#xd6;" horiz-adv-x="790" 
d="M794 881q4 8 1.5 15.5t-10.5 11.5t-15.5 1.5t-11.5 -10.5l-426 -884l-183 402q-5 7 -13 3l-116 -87q-9 -7 -2 -16q6 -8 15 -2l60 45l201 -443q3 -7 11 -7h8q14 0 19 11z" />
    <glyph glyph-name="radical" unicode="&#x221a;" horiz-adv-x="790" 
d="M794 881q4 8 1.5 15.5t-10.5 11.5t-15.5 1.5t-11.5 -10.5l-426 -884l-183 402q-5 7 -13 3l-116 -87q-9 -7 -2 -16q6 -8 15 -2l60 45l201 -443q3 -7 11 -7h8q14 0 19 11z" />
    <glyph glyph-name="arrowdblleft" unicode="&#xdc;" horiz-adv-x="1000" 
d="M944 153q0 8 -6 14t-14 6h-647q-60 48 -129 77q69 29 129 77h647q8 0 14 6t6 14t-6 14t-14 6h-603q61 62 100 142q5 11 -5 15q-2 1 -5 1h-18q-7 0 -10 -6q-43 -89 -115 -152q-43 -38 -94 -65t-108 -41q-11 -4 -8 -14q2 -6 8 -8q105 -26 187.5 -93.5t129.5 -164.5
q3 -6 10 -6h18q11 0 11 11q0 3 -1 5q-39 80 -100 142h603q8 0 14 6t6 14z" />
    <glyph glyph-name="angleleft" unicode="&#xe1;" horiz-adv-x="389" 
d="M330 -223l-179 473l179 473q3 8 -0.5 15.5t-11.5 10.5t-15.5 -0.5t-10.5 -11.5l-182 -480q-2 -8 0 -14l182 -480q3 -8 10.5 -11.5t15.5 -0.5t11.5 10.5t0.5 15.5z" />
    <glyph glyph-name="lozenge" unicode="&#xe0;" horiz-adv-x="667" 
d="M607 281q6 11 0 21l-257 405q-1 4 -6 7q-11 6 -21 0q-4 -3 -7 -7l-256 -405q-9 -11 0 -21l256 -405q3 -5 7 -6q5 -4 10.5 -3.5t10.5 3.5q4 1 6 6zM566 292l-233 -368l-233 368l233 367z" />
    <glyph glyph-name="lozenge" unicode="&#x25ca;" horiz-adv-x="667" 
d="M607 281q6 11 0 21l-257 405q-1 4 -6 7q-11 6 -21 0q-4 -3 -7 -7l-256 -405q-9 -11 0 -21l256 -405q3 -5 7 -6q5 -4 10.5 -3.5t10.5 3.5q4 1 6 6zM566 292l-233 -368l-233 368l233 367z" />
    <glyph glyph-name="registersans" unicode="&#xe2;" horiz-adv-x="790" 
d="M741 331q0 142 -101 245q-102 102 -245 102t-245 -102t-102 -245t102 -245t245 -102t245 102q101 103 101 245zM703 331q0 -127 -90 -218q-92 -90 -218 -90q-128 0 -218 90q-90 91 -90 218q0 128 90 218t218 90q126 0 218 -90q90 -90 90 -218zM575 157l-38 68
q-11 18 -30 45q-10 13 -16.5 21.5t-11.5 13.5q-5 4 -13 9t-19 10q51 8 75 29q36 30 36 76q0 44 -34 72q-35 29 -113 29h-145v-373h48v161h31q51 0 71 -14q22 -13 63 -86l37 -61h59zM508 425q0 -19 -12 -35t-31 -22q-27 -8 -103 -8h-48v130h71q83 0 103 -19q20 -20 20 -46z
" />
    <glyph glyph-name="trademarksans" unicode="&#xe4;" horiz-adv-x="786" 
d="M737 290v372h-72l-106 -316l-108 316h-71v-372h50v300l105 -300h49l104 300v-300h49zM317 619v43h-297v-43h125v-329h49v329h123z" />
    <glyph glyph-name="copyrightsans" unicode="&#xe3;" horiz-adv-x="790" 
d="M741 331q0 142 -101 245q-102 102 -245 102q-145 0 -245 -102q-102 -102 -102 -245t102 -245q100 -102 245 -102q143 0 245 102q101 103 101 245zM703 331q0 -127 -90 -218q-92 -90 -218 -90q-128 0 -218 90q-90 91 -90 218q0 128 90 218t218 90q126 0 218 -90
q90 -90 90 -218zM555 256l-43 13q-12 -45 -43 -69q-31 -25 -73 -25q-49 0 -84 38q-34 38 -34 109q0 78 35 119q36 42 87 42q37 0 65 -20q27 -19 41 -58l49 10q-15 55 -53 82q-37 28 -98 28q-81 0 -129 -53t-48 -147q0 -93 48 -144q46 -51 121 -51q59 0 101 33q41 32 58 93z
" />
    <glyph glyph-name="summation" unicode="&#xe5;" horiz-adv-x="830" 
d="M817 108h-21q-14 -44 -46 -76t-74 -52q-29 -14 -62.5 -21.5t-68.5 -11t-71.5 -4t-71.5 -0.5h-314l301 372q4 4 0 11l-281 386h289q35 0 71.5 -0.5t72.5 -4.5t69.5 -11.5t62.5 -21.5q42 -20 74.5 -52t48.5 -76h21l-73 200h-718q-9 0 -9 -10v-15q0 -4 1 -6l308 -423
l-308 -381q-1 -2 -1 -6q0 -6 3 -8q4 -2 6 -2h718z" />
    <glyph glyph-name="summation" unicode="&#x2211;" horiz-adv-x="830" 
d="M817 108h-21q-14 -44 -46 -76t-74 -52q-29 -14 -62.5 -21.5t-68.5 -11t-71.5 -4t-71.5 -0.5h-314l301 372q4 4 0 11l-281 386h289q35 0 71.5 -0.5t72.5 -4.5t69.5 -11.5t62.5 -21.5q42 -20 74.5 -52t48.5 -76h21l-73 200h-718q-9 0 -9 -10v-15q0 -4 1 -6l308 -423
l-308 -381q-1 -2 -1 -6q0 -6 3 -8q4 -2 6 -2h718z" />
    <glyph glyph-name="parenleftex" unicode="&#xe7;" horiz-adv-x="389" 
d="M156 166v460h-58v-460h58z" />
    <glyph glyph-name="bracketlefttp" unicode="&#xe9;" horiz-adv-x="178" 
d="M138 710v40h-138v-750h40v710h98z" />
    <glyph glyph-name="parenleftbt" unicode="&#xe8;" horiz-adv-x="389" 
d="M331 -240q0 4 -3 7q-48 45 -81 101t-53.5 118.5t-29 129t-8.5 134.5v250h-58v-250q0 -71 12.5 -141.5t38.5 -135t66.5 -121t97.5 -100.5q2 -2 9 -2q4 0 7 3q2 4 2 7z" />
    <glyph glyph-name="bracketleftex" unicode="&#xea;" horiz-adv-x="178" 
d="M40 0v750h-40v-750h40z" />
    <glyph glyph-name="bracketleftbt" unicode="&#xeb;" horiz-adv-x="178" 
d="M138 0v40h-98v710h-40v-750h138z" />
    <glyph glyph-name="braceleftmid" unicode="&#xed;" horiz-adv-x="500" 
d="M282 0v244q0 25 -9.5 45t-25.5 35.5t-37.5 26.5t-46.5 17q25 6 46.5 17t37.5 26.5t25.5 35.5t9.5 45v244h-66v-244q0 -24 -11 -45t-29 -36t-42.5 -23.5t-51.5 -8.5q-10 0 -10 -10v-2q0 -10 10 -10q27 0 51.5 -8.5t42.5 -23.5t29 -36t11 -45v-244h66z" />
    <glyph glyph-name="bracelefttp" unicode="&#xec;" horiz-adv-x="500" 
d="M426 737v3q0 10 -10 10q-36 0 -72 -7.5t-64.5 -23.5t-46 -41t-17.5 -60v-244h66v244q0 24 11 44t29.5 35t42.5 23t51 8q10 0 10 9z" />
    <glyph glyph-name="braceleftbt" unicode="&#xee;" horiz-adv-x="500" 
d="M426 10v3q0 9 -10 9q-27 0 -51 8t-42.5 23t-29.5 35t-11 44v244h-66v-244q0 -35 17.5 -60t46 -41t64.5 -23.5t72 -7.5q10 0 10 10z" />
    <glyph glyph-name="braceex" unicode="&#xef;" horiz-adv-x="500" 
d="M282 119v480h-66v-480h66z" />
    <glyph glyph-name="angleright" unicode="&#xf1;" horiz-adv-x="389" 
d="M280 243q3 8 0 14l-182 480q-3 8 -10 11.5t-15 0.5t-11.5 -10.5t-0.5 -15.5l179 -473l-179 -473q-3 -8 0.5 -15.5t11.5 -10.5t15 0.5t10 11.5z" />
    <glyph glyph-name="integraltp" unicode="&#xf3;" horiz-adv-x="729" 
d="M802 823q0 31 -14.5 55t-38 40t-53.5 24t-60 8q-60 0 -101.5 -31t-69.5 -80.5t-44.5 -110t-24.5 -120.5q-8 -61 -14.5 -121t-10.5 -121.5t-6 -125.5t-1 -133v-357h126v365q1 78 0.5 141t-0.5 120q0 58 2 113t7 116q5 60 12.5 116t22 99.5t39 70t63.5 26.5q29 0 54 -8.5
t43 -22.5q-22 -2 -38.5 -18t-16.5 -45q0 -31 19.5 -46.5t42.5 -15.5t42.5 15.5t19.5 46.5z" />
    <glyph glyph-name="integral" unicode="&#xf2;" horiz-adv-x="422" 
d="M553 865q0 21 -10 36.5t-25.5 26.5t-35.5 16.5t-40 5.5q-40 0 -68 -20.5t-46.5 -53.5t-29.5 -73.5t-16 -80.5q-11 -81 -21 -158.5t-19 -168.5q-5 -51 -8.5 -93t-6.5 -80.5t-5.5 -75.5t-6.5 -77q-3 -40 -9 -77.5t-17 -66.5t-29.5 -46.5t-48.5 -17.5q-40 0 -66 21
q15 2 26.5 12t11.5 30q0 21 -13 31t-29 10q-15 0 -28 -10t-13 -31t9.5 -36.5t25.5 -26.5t35.5 -16.5t40.5 -5.5q40 0 70.5 20t51.5 52.5t33.5 73t18.5 81.5q10 82 20.5 159.5t19.5 167.5q5 51 8.5 93.5t6 80.5t5 75t6.5 78q3 40 8 77.5t14.5 66.5t26 46.5t42.5 17.5
q39 0 65 -21q-14 -2 -25.5 -12t-11.5 -30q0 -21 13 -31t28 -10q16 0 29 10t13 31z" />
    <glyph glyph-name="integral" unicode="&#x222b;" horiz-adv-x="422" 
d="M553 865q0 21 -10 36.5t-25.5 26.5t-35.5 16.5t-40 5.5q-40 0 -68 -20.5t-46.5 -53.5t-29.5 -73.5t-16 -80.5q-11 -81 -21 -158.5t-19 -168.5q-5 -51 -8.5 -93t-6.5 -80.5t-5.5 -75.5t-6.5 -77q-3 -40 -9 -77.5t-17 -66.5t-29.5 -46.5t-48.5 -17.5q-40 0 -66 21
q15 2 26.5 12t11.5 30q0 21 -13 31t-29 10q-15 0 -28 -10t-13 -31t9.5 -36.5t25.5 -26.5t35.5 -16.5t40.5 -5.5q40 0 70.5 20t51.5 52.5t33.5 73t18.5 81.5q10 82 20.5 159.5t19.5 167.5q5 51 8.5 93.5t6 80.5t5 75t6.5 78q3 40 8 77.5t14.5 66.5t26 46.5t42.5 17.5
q39 0 65 -21q-14 -2 -25.5 -12t-11.5 -30q0 -21 13 -31t28 -10q16 0 29 10t13 31z" />
    <glyph glyph-name="integralex" unicode="&#xf4;" horiz-adv-x="729" 
d="M489 -100v700h-126v-700h126z" />
    <glyph glyph-name="parenrighttp" unicode="&#xf6;" horiz-adv-x="389" 
d="M289 0v250q0 71 -12.5 141.5t-38.5 135t-66.5 121t-97.5 100.5q-4 2 -6 2h-3q-4 0 -7 -3q-2 -2 -2 -7q0 -4 3 -7q48 -45 81 -101t53.5 -118.5t29 -129.5t8.5 -134v-250h58z" />
    <glyph glyph-name="integralbt" unicode="&#xf5;" horiz-adv-x="729" 
d="M489 592v358h-126v-365q2 -77 1.5 -138.5t-2.5 -117t-6 -109t-9 -114.5q-5 -60 -13.5 -116.5t-25.5 -100t-45 -69.5t-72 -26q-29 0 -55 9t-44 23q23 2 40 18t17 45q0 31 -19.5 46.5t-43.5 15.5q-23 0 -42.5 -15.5t-19.5 -46.5t14.5 -55t38 -40t53.5 -24.5t61 -8.5
q61 0 106 30t77 79t51 109.5t27 122.5q8 61 15.5 120t12.5 118.5t7.5 121.5t1.5 130z" />
    <glyph glyph-name="bracketrightex" unicode="&#xfa;" horiz-adv-x="178" 
d="M178 0v750h-40v-750h40z" />
    <glyph glyph-name="bracketrighttp" unicode="&#xf9;" horiz-adv-x="178" 
d="M178 0v750h-138v-40h98v-710h40z" />
    <glyph glyph-name="bracketrightbt" unicode="&#xfb;" horiz-adv-x="178" 
d="M178 0v750h-40v-710h-98v-40h138z" />
    <glyph glyph-name="bracerighttp" unicode="&#xfc;" horiz-adv-x="500" 
d="M282 374v244q0 35 -18 60t-46.5 41t-64 23.5t-71.5 7.5q-10 0 -10 -10v-3q0 -9 10 -9q27 0 51 -8t42.5 -23t29.5 -35t11 -44v-244h66z" />
    <glyph glyph-name="degree" unicode="&#xb0;" horiz-adv-x="399" 
d="M349 597q0 62 -44 106t-106 44t-106 -44q-44 -43 -44 -106t44 -106q44 -44 106 -44t106 44t44 106zM308 597q0 -45 -32 -77t-77 -32t-77 32q-32 31 -32 77t32 77q31 32 77 32t77 -32q32 -32 32 -77z" />
    <glyph glyph-name="minute" unicode="&#xa2;" horiz-adv-x="247" 
d="M209 682q9 20 0 34.5t-24 20t-31 -0.5t-22 -27l-93 -340q-2 -3 0 -6t4 -3l18 -6q2 -2 5 -0.5t4 4.5z" />
    <glyph glyph-name="lessequal" unicode="&#xa3;" 
d="M691 67q3 8 0.5 15.5t-10.5 11.5l-531 252l531 252q17 8 10 27q-4 8 -11.5 10.5t-15.5 -1.5l-569 -270q-6 -3 -10 -10q-3 -9 0 -17q3 -5 10 -9l569 -270q8 -4 15.5 -1.5t11.5 10.5zM692 -119q0 8 -6 14t-14 6h-569q-8 0 -14 -6t-6 -14t6 -14t14 -6h569q8 0 14 6t6 14z
" />
    <glyph glyph-name="lessequal" unicode="&#x2264;" 
d="M691 67q3 8 0.5 15.5t-10.5 11.5l-531 252l531 252q17 8 10 27q-4 8 -11.5 10.5t-15.5 -1.5l-569 -270q-6 -3 -10 -10q-3 -9 0 -17q3 -5 10 -9l569 -270q8 -4 15.5 -1.5t11.5 10.5zM692 -119q0 8 -6 14t-14 6h-569q-8 0 -14 -6t-6 -14t6 -14t14 -6h569q8 0 14 6t6 14z
" />
    <glyph glyph-name="club" unicode="&#xa7;" 
d="M748 173q0 35 -9 70t-27 62.5t-45.5 45t-63.5 17.5q-31 0 -53.5 -11t-38.5 -31l-23 46q35 27 55.5 69.5t20.5 91.5q0 38 -13 73.5t-36.5 62.5t-55.5 43t-71 16t-71 -16t-55.5 -43t-36.5 -62.5t-13 -73.5q0 -49 20 -91.5t55 -69.5l-22 -46q-16 20 -38.5 31t-53.5 11
q-36 0 -63.5 -17.5t-45.5 -45t-27 -62.5t-9 -70q0 -38 12 -73t34.5 -62t54 -43.5t69.5 -16.5q21 0 42 5.5t38.5 17t28.5 29t11 41.5h50q-3 -44 -8 -88t-19 -87q-2 -8 1.5 -15.5t11.5 -9.5q2 0 3 -0.5t3 -0.5h56q8 0 14 6t6 14q0 2 -0.5 3.5t-0.5 2.5q-14 43 -19 87t-8 88h50
q0 -24 11 -41.5t28 -29t38.5 -17t42.5 -5.5q38 0 69.5 16.5t54 43.5t34.5 62t12 73z" />
    <glyph glyph-name="bullet" unicode="&#xb7;" horiz-adv-x="500" 
d="M442 250q0 38 -14.5 74t-41.5 63q-27 28 -63 42.5t-74 14.5t-74 -14.5t-63 -42.5q-27 -27 -41.5 -63t-14.5 -74t14.5 -74t41.5 -63q27 -28 63 -42.5t74 -14.5t74 14.5t63 42.5q27 27 41.5 63t14.5 74z" />
    <glyph glyph-name="bullet" unicode="&#x2022;" horiz-adv-x="500" 
d="M442 250q0 38 -14.5 74t-41.5 63q-27 28 -63 42.5t-74 14.5t-74 -14.5t-63 -42.5q-27 -27 -41.5 -63t-14.5 -74t14.5 -74t41.5 -63q27 -28 63 -42.5t74 -14.5t74 14.5t63 42.5q27 27 41.5 63t14.5 74z" />
    <glyph glyph-name="partialdiff" unicode="&#xb6;" horiz-adv-x="594" 
d="M559 348q18 70 14 137t-33 123q-26 48 -71.5 78.5t-107.5 30.5q-35 0 -66 -10.5t-56 -29.5t-43 -47t-27 -62q-6 -22 5.5 -33t27.5 -11q17 0 33.5 11t22.5 33q7 27 -10 37.5t-37 4.5q21 39 58.5 60.5t85.5 21.5t81.5 -27.5t48.5 -70.5q20 -57 11.5 -122.5t-25.5 -133.5
q-7 52 -38.5 86t-88.5 34q-51 0 -93 -16.5t-86 -53.5q-46 -38 -70.5 -77.5t-37.5 -91.5q-14 -53 -8 -92.5t34 -77.5q27 -38 61.5 -54.5t87.5 -16.5q54 0 106.5 26.5t92.5 72.5q53 61 82 131t46 140zM437 214q-12 -35 -26 -67t-31 -56q-26 -38 -64 -61.5t-77 -23.5t-63 13.5
t-39 45.5q-16 35 -11 70.5t17 83.5q6 24 12 44.5t13.5 39.5t18 36.5t26.5 34.5q29 32 59.5 46.5t68.5 14.5q36 0 61 -18t38 -47.5t12.5 -68.5t-15.5 -81q-2 -3 0 -6z" />
    <glyph glyph-name="partialdiff" unicode="&#x2202;" horiz-adv-x="594" 
d="M559 348q18 70 14 137t-33 123q-26 48 -71.5 78.5t-107.5 30.5q-35 0 -66 -10.5t-56 -29.5t-43 -47t-27 -62q-6 -22 5.5 -33t27.5 -11q17 0 33.5 11t22.5 33q7 27 -10 37.5t-37 4.5q21 39 58.5 60.5t85.5 21.5t81.5 -27.5t48.5 -70.5q20 -57 11.5 -122.5t-25.5 -133.5
q-7 52 -38.5 86t-88.5 34q-51 0 -93 -16.5t-86 -53.5q-46 -38 -70.5 -77.5t-37.5 -91.5q-14 -53 -8 -92.5t34 -77.5q27 -38 61.5 -54.5t87.5 -16.5q54 0 106.5 26.5t92.5 72.5q53 61 82 131t46 140zM437 214q-12 -35 -26 -67t-31 -56q-26 -38 -64 -61.5t-77 -23.5t-63 13.5
t-39 45.5q-16 35 -11 70.5t17 83.5q6 24 12 44.5t13.5 39.5t18 36.5t26.5 34.5q29 32 59.5 46.5t68.5 14.5q36 0 61 -18t38 -47.5t12.5 -68.5t-15.5 -81q-2 -3 0 -6z" />
    <glyph glyph-name="arrowdbldown" unicode="&#xdf;" horiz-adv-x="611" 
d="M580 141v18q0 5 -3.5 8t-7.5 3t-5 -1q-82 -40 -142 -100v605q0 8 -6 14t-14 6t-14 -6t-6 -14v-649q-49 -60 -77 -129q-30 70 -78 129v649q0 8 -6 14t-14 6t-14 -6t-6 -14v-605q-60 60 -142 100q-4 2 -8.5 0.5t-6.5 -5.5q0 -2 -0.5 -2.5t-0.5 -2.5v-18q0 -7 7 -10
q97 -47 164.5 -129.5t93.5 -187.5q2 -6 8 -8q5 -2 8.5 1t4.5 7q26 105 93.5 187.5t164.5 129.5q7 3 7 10z" />
    <glyph glyph-name="arrowright" unicode="&#xae;" horiz-adv-x="1000" 
d="M948 246q2 5 0 8q-3 4 -6 6q-54 23 -95 64.5t-62 96.5q-2 7 -10 7h-9l-3 -1q-8 -3 -8 -10q9 -47 40.5 -83t68.5 -64h-782q-10 0 -15 -6.5t-5 -14.5q0 -7 5 -13t15 -6h782q-37 -28 -68.5 -63.5t-40.5 -83.5q0 -7 8 -10l3 -1h9q8 0 10 7q21 55 62 96.5t95 64.5q5 2 6 6z
" />
    <glyph glyph-name="heart" unicode="&#xa9;" 
d="M720 486q0 46 -8.5 87.5t-28 73.5t-51.5 51t-78 19q-57 0 -100 -31.5t-66 -80.5q-23 49 -66 80.5t-100 31.5q-46 0 -78 -19t-51.5 -51t-28 -73.5t-8.5 -87.5q0 -57 20.5 -107t53 -95t72 -84.5t77.5 -75.5q31 -29 53 -65.5t37 -78.5q3 -8 12 -12q7 -3 14 0q9 3 12 12
q15 42 37 78.5t53 65.5q38 36 77.5 75.5t72 84.5t53 95t20.5 107z" />
    <glyph glyph-name="multiply" unicode="&#xb4;" 
d="M625 14q6 6 6 14q0 9 -6 15l-207 207l207 207q6 6 6 14q0 9 -6 15t-15 6q-8 0 -14 -6l-206 -208l-207 208q-14 14 -28 0q-6 -6 -6 -15q0 -8 6 -14l207 -207l-207 -207q-6 -6 -6 -15q0 -8 6 -14t14 -6t14 6l207 208l206 -208q6 -6 14 -6q9 0 15 6z" />
    <glyph glyph-name="diamond" unicode="&#xa8;" 
d="M723 269q13 13 0 27l-1 1q-94 94 -172 197.5t-136 222.5q-3 6 -9 9q-8 4 -18 0q-5 -2 -9 -9q-58 -119 -136 -222.5t-172 -197.5l-1 -1q-6 -6 -5.5 -14t5.5 -13l1 -1q94 -94 172 -197.5t136 -222.5q3 -6 9 -9q9 -5 18 0q6 3 9 9q58 119 136 222.5t172 197.5z" />
    <glyph glyph-name="notequal" unicode="&#x2260;" horiz-adv-x="780" 
d="M720 153q0 8 -6 14t-14 6h-360l147 154h213q8 0 14 6t6 14t-6 14t-14 6h-175l65 69q6 6 5.5 14.5t-6.5 14.5q-6 5 -14 5t-14 -6l-92 -97h-393q-8 0 -14 -6t-6 -14t6 -14t14 -6h355l-146 -154h-209q-8 0 -14 -6t-6 -14t6 -14t14 -6h171l-65 -69q-6 -6 -6 -15q0 -8 6 -13
q6 -6 14 -6q9 0 15 6l91 97h398q8 0 14 6t6 14z" />
    <glyph glyph-name="emptyset" unicode="&#xc6;" 
d="M723 579q-5 6 -13 6t-15 -5l-92 -80q-42 42 -95 63.5t-112 21.5t-112.5 -22t-95.5 -64t-64 -95t-22 -112q0 -49 15.5 -94.5t44.5 -83.5l-92 -81q-6 -5 -6.5 -13.5t5.5 -14.5q5 -7 13 -7q9 0 15 5l92 80q42 -41 95 -63t112 -22t112.5 22t95.5 64t64 95.5t22 112.5
q0 48 -15.5 94t-44.5 84l91 80q7 6 7.5 14t-5.5 15zM573 473l-380 -333q-51 68 -51 152q0 51 19.5 97t55.5 82q35 36 81.5 55t97.5 19q50 0 95.5 -18.5t81.5 -53.5zM650 292q0 -51 -19.5 -97.5t-55.5 -82.5q-35 -35 -81.5 -54.5t-97.5 -19.5q-50 0 -96 18.5t-81 53.5
l380 333q51 -66 51 -151z" />
    <glyph glyph-name="logicalnot" unicode="&#xd8;" horiz-adv-x="667" 
d="M609 109v227q0 8 -6 14t-14 6h-513q-8 0 -14 -6t-6 -14t6 -14t14 -6h493v-207q0 -8 6 -14t14 -6t14 6t6 14z" />
    <glyph glyph-name="infinity" unicode="&#xa5;" horiz-adv-x="1000" 
d="M942 215q0 44 -13.5 85t-38 72.5t-59 50.5t-76.5 19q-41 0 -77 -14t-66.5 -37.5t-57 -54.5t-47.5 -66l-32 42q-42 55 -100 92.5t-128 37.5q-43 0 -78 -19t-60 -50.5t-39 -72.5t-14 -85t13.5 -84.5t38 -72t59 -50.5t76.5 -19q41 0 77 14t66.5 37t57 54t47.5 66l32 -41
q21 -27 46 -50.5t54 -41.5t61 -28t67 -10q43 0 78 19t60 50.5t39 72t14 84.5zM920 215q0 -36 -11.5 -68t-32.5 -56.5t-49.5 -39t-61.5 -14.5q-28 0 -52.5 11t-46 29.5t-41.5 42t-39 48.5l-53 69q20 35 44.5 66.5t53 55t61 37.5t70.5 14q35 0 64 -16t50 -42.5t32.5 -62
t11.5 -74.5zM465 194q-20 -35 -44.5 -66.5t-53 -55t-61.5 -37.5t-70 -14q-35 0 -64 16t-50 42.5t-32.5 61.5t-11.5 74q0 36 11.5 68.5t32.5 57t49.5 39t61.5 14.5q28 0 52 -11t46 -29.5t41.5 -42.5t39.5 -49z" />
    <glyph glyph-name="infinity" unicode="&#x221e;" horiz-adv-x="1000" 
d="M942 215q0 44 -13.5 85t-38 72.5t-59 50.5t-76.5 19q-41 0 -77 -14t-66.5 -37.5t-57 -54.5t-47.5 -66l-32 42q-42 55 -100 92.5t-128 37.5q-43 0 -78 -19t-60 -50.5t-39 -72.5t-14 -85t13.5 -84.5t38 -72t59 -50.5t76.5 -19q41 0 77 14t66.5 37t57 54t47.5 66l32 -41
q21 -27 46 -50.5t54 -41.5t61 -28t67 -10q43 0 78 19t60 50.5t39 72t14 84.5zM920 215q0 -36 -11.5 -68t-32.5 -56.5t-49.5 -39t-61.5 -14.5q-28 0 -52.5 11t-46 29.5t-41.5 42t-39 48.5l-53 69q20 35 44.5 66.5t53 55t61 37.5t70.5 14q35 0 64 -16t50 -42.5t32.5 -62
t11.5 -74.5zM465 194q-20 -35 -44.5 -66.5t-53 -55t-61.5 -37.5t-70 -14q-35 0 -64 16t-50 42.5t-32.5 61.5t-11.5 74q0 36 11.5 68.5t32.5 57t49.5 39t61.5 14.5q28 0 52 -11t46 -29.5t41.5 -42.5t39.5 -49z" />
    <glyph glyph-name="plusminus" unicode="&#xb1;" 
d="M720 20q0 8 -6 14t-14 6h-292v273h292q8 0 14 6t6 14t-6 14t-14 6h-292v294q0 8 -6 14t-14 6t-14 -6t-6 -14v-294h-292q-8 0 -14 -6t-6 -14t6 -14t14 -6h292v-273h-292q-8 0 -14 -6t-6 -14t6 -14t14 -6h624q8 0 14 6t6 14z" />
    <glyph glyph-name="greaterequal" unicode="&#x2265;" 
d="M693 337q3 9 0 17q-4 7 -10 10l-569 270q-8 4 -15.5 1.5t-11.5 -10.5q-7 -19 10 -27l531 -252l-531 -252q-8 -4 -10.5 -11.5t0.5 -15.5q4 -8 11.5 -10.5t15.5 1.5l569 270q7 4 10 9zM694 -119q0 8 -6 14t-14 6h-569q-8 0 -14 -6t-6 -14t6 -14t14 -6h569q8 0 14 6t6 14z
" />
    <glyph glyph-name="proportional" unicode="&#xb5;" 
d="M720 -7v39q-5 -1 -11 -1.5t-11 -0.5q-27 0 -50 11t-43.5 29.5t-38.5 42t-34 49.5l-47 73q16 36 37 68.5t47.5 56.5t58 38.5t67.5 14.5q13 0 25 -3v28q-8 2 -15.5 3t-16.5 1q-39 0 -72.5 -14t-62 -37.5t-51 -54.5t-40.5 -66l-23 35q-18 28 -40.5 52.5t-49 43.5t-56.5 30
t-64 11q-41 0 -73 -19.5t-54.5 -51.5t-34 -72.5t-11.5 -83.5q0 -42 11.5 -83t33 -72.5t53 -51t72.5 -19.5q39 0 72.5 14t62 37.5t51.5 54.5t41 66l23 -36q18 -27 40 -52t48.5 -43.5t57 -29.5t64.5 -11q19 0 34 4zM430 196q-16 -36 -37.5 -68.5t-47.5 -57t-57.5 -38.5
t-67.5 -14q-33 0 -59.5 16.5t-44.5 43.5t-28 62.5t-10 74.5q0 37 10 70.5t28 59t43.5 40.5t57.5 15q27 0 50 -11t43.5 -29t38 -42t34.5 -49z" />
    <glyph glyph-name="product" unicode="&#xd5;" horiz-adv-x="807" 
d="M753 -102v34q-17 0 -34 2.5t-31 12.5q-23 14 -23 42v669q0 28 23 42q14 10 31 12.5t34 2.5v34h-706v-34q17 0 34 -2.5t31 -12.5q21 -14 21 -42v-669q0 -13 -5 -24t-16 -18q-14 -10 -31 -12.5t-34 -2.5v-34h256v34q-17 0 -34 2.5t-31 12.5q-11 7 -16 18t-5 24v726h366
v-726q0 -28 -22 -42q-14 -10 -31.5 -12.5t-34.5 -2.5v-34h258z" />
    <glyph glyph-name="product" unicode="&#x220f;" horiz-adv-x="807" 
d="M753 -102v34q-17 0 -34 2.5t-31 12.5q-23 14 -23 42v669q0 28 23 42q14 10 31 12.5t34 2.5v34h-706v-34q17 0 34 -2.5t31 -12.5q21 -14 21 -42v-669q0 -13 -5 -24t-16 -18q-14 -10 -31 -12.5t-34 -2.5v-34h256v34q-17 0 -34 2.5t-31 12.5q-11 7 -16 18t-5 24v726h366
v-726q0 -28 -22 -42q-14 -10 -31.5 -12.5t-34.5 -2.5v-34h258z" />
    <glyph glyph-name="spade" unicode="&#xaa;" 
d="M720 208q0 47 -16.5 88t-42 77t-58 68t-63.5 60q-48 42 -79 97t-54 117q-3 9 -12 12q-8 2 -14 0q-9 -5 -12 -12q-23 -62 -54.5 -117t-78.5 -97q-32 -28 -64 -60t-57.5 -68t-42 -77t-16.5 -88q0 -36 5 -76.5t19.5 -74.5t40 -56.5t66.5 -22.5q21 0 44.5 5t42.5 16
t31.5 28.5t12.5 43.5h50q-2 -45 -7.5 -88.5t-19.5 -86.5q-2 -8 1.5 -15.5t11.5 -9.5q2 0 3 -0.5t3 -0.5h56q8 0 14 6t6 14q0 2 -0.5 3.5t-0.5 2.5q-14 43 -19.5 86.5t-7.5 88.5h50q0 -26 12.5 -43.5t31.5 -28.5t42 -16t45 -5q41 0 66.5 22.5t40 56.5t19.5 74.5t5 76.5z" />
    <glyph glyph-name="equivalence" unicode="&#xba;" 
d="M720 445q0 8 -6 14t-14 6h-624q-8 0 -14 -6t-6 -14t6 -14t14 -6h624q8 0 14 6t6 14zM720 250q0 8 -6 14t-14 6h-624q-8 0 -14 -6t-6 -14t6 -14t14 -6h624q8 0 14 6t6 14zM720 55q0 8 -6 14t-14 6h-624q-8 0 -14 -6t-6 -14t6 -14t14 -6h624q8 0 14 6t6 14z" />
    <glyph glyph-name="parenlefttp" unicode="&#xe6;" horiz-adv-x="389" 
d="M331 740q0 3 -2 7q-3 3 -7 3q-7 0 -9 -2q-57 -44 -97.5 -100.5t-66.5 -121t-38.5 -135t-12.5 -141.5v-250h58v250q0 67 8.5 134t29 129.5t53.5 118.5t81 101q3 3 3 7z" />
    <glyph glyph-name="parenrightbt" unicode="&#xf8;" horiz-adv-x="389" 
d="M289 250v250h-58v-250q0 -68 -8.5 -134.5t-29 -129t-53.5 -118.5t-81 -101q-3 -3 -3 -7q0 -3 2 -7q3 -3 7 -3h3q2 0 6 2q57 44 97.5 100.5t66.5 121t38.5 135t12.5 141.5z" />
    <glyph glyph-name="carriagereturn" unicode="&#xbf;" horiz-adv-x="658" 
d="M592 69v552h-47v-504h-363v87l-167 -111l167 -108v84h410z" />
    <glyph glyph-name="Upsilon1" unicode="&#xa1;" horiz-adv-x="692" 
d="M676 547q0 31 -9.5 60t-26.5 51t-41 35t-53 13q-45 0 -79.5 -20t-59.5 -54.5t-40.5 -79.5t-23.5 -96q-8 51 -23 96t-40 79.5t-59.5 54.5t-79.5 20q-29 0 -53 -13t-41 -35t-26.5 -51t-9.5 -60q0 -11 11 -11h9q11 0 11 11q0 38 29.5 62t69.5 24q46 0 76.5 -25.5t49.5 -67
t27 -93.5t8 -105v-275q0 -24 -14 -29t-44.5 -6t-59.5 -1q-11 0 -11 -12v-8q0 -11 11 -11q159 6 318 0q12 0 12 11v8q0 12 -12 12q-29 0 -59 1t-44 6t-14 29v275q0 53 8 105t26.5 93.5t49.5 67t77 25.5q19 0 37 -6.5t32 -18t22 -27t8 -34.5q0 -11 11 -11h9q11 0 11 11z" />
    <glyph glyph-name="arrowleft" unicode="&#xac;" horiz-adv-x="1000" 
d="M922 230q10 0 15 6t5 13q0 8 -5 14.5t-15 6.5h-782q37 28 68.5 63.5t40.5 83.5q0 7 -8 10l-3 1h-9q-8 0 -10 -7q-21 -55 -62 -96.5t-95 -64.5q-5 -2 -6 -6q-2 -5 0 -8q3 -5 6 -6q54 -23 95 -64.5t62 -96.5q2 -7 10 -7h9l3 1q8 3 8 10q-9 47 -40.5 83t-68.5 64h782z" />
    <glyph glyph-name="florin" unicode="&#x192;" horiz-adv-x="490" 
d="M559 621q5 20 -0.5 35.5t-17.5 26.5t-29.5 17t-36.5 6q-25 0 -48.5 -13t-41.5 -33q-13 -15 -22.5 -35.5t-16 -43t-11 -45.5t-8.5 -42l-12 -64h-83q-10 0 -14 -11l-2 -8q-2 -11 8 -11h85l-47 -251q-7 -35 -15 -77.5t-16 -81.5t-15 -70t-11 -44q-9 -26 -22.5 -42.5
t-30.5 -16.5q-16 0 -29.5 4.5t-21.5 13.5q16 1 31.5 12t20.5 32q6 22 -5 33t-28 11q-16 0 -32.5 -11t-22.5 -33q-5 -20 0 -35.5t16.5 -26.5t28.5 -17t36 -6q16 0 31.5 7t28.5 18t24 24.5t19 27.5q15 25 27.5 59.5t22 72.5t17.5 77t14 73l46 247h101q11 0 13 11l3 8
q2 11 -9 11h-102l13 69q5 25 10 51t9 47.5t7.5 36t5.5 17.5q8 14 19.5 23t22.5 9q35 0 53 -18q-16 -1 -31.5 -12t-20.5 -32q-6 -22 5.5 -33t27.5 -11q17 0 33.5 11t22.5 33z" />
    <glyph glyph-name="approxequal" unicode="&#xbb;" 
d="M720 436q0 12 -4 20t-10 8t-10 -8t-4 -20q0 -19 -10 -38.5t-28 -35.5t-43.5 -26t-56.5 -10q-46 0 -85.5 21.5t-78.5 47.5t-79.5 47.5t-88.5 21.5q-30 0 -59.5 -11t-53.5 -32t-38.5 -52t-14.5 -72q0 -11 4 -19.5t10 -8.5q5 0 9.5 8.5t4.5 19.5q0 19 9.5 38.5t27.5 35.5
t43.5 26.5t57.5 10.5q46 0 85.5 -21.5t78.5 -48t79.5 -48t88.5 -21.5q30 0 59.5 11t53 32t38.5 52t15 72zM720 203q0 12 -4 20t-10 8t-10 -8t-4 -20q0 -19 -10 -38.5t-28 -35.5t-43.5 -26t-56.5 -10q-46 0 -85.5 21.5t-78.5 47.5t-79.5 47.5t-88.5 21.5q-30 0 -59.5 -11
t-53.5 -32t-38.5 -52t-14.5 -71q0 -12 4 -20.5t10 -8.5q5 0 9.5 8.5t4.5 20.5q0 18 9.5 37.5t27.5 35.5t43.5 26.5t57.5 10.5q46 0 85.5 -21.5t78.5 -48t79.5 -48t88.5 -21.5q30 0 59.5 11t53 32t38.5 52t15 72z" />
    <glyph glyph-name="approxequal" unicode="&#x2248;" 
d="M720 436q0 12 -4 20t-10 8t-10 -8t-4 -20q0 -19 -10 -38.5t-28 -35.5t-43.5 -26t-56.5 -10q-46 0 -85.5 21.5t-78.5 47.5t-79.5 47.5t-88.5 21.5q-30 0 -59.5 -11t-53.5 -32t-38.5 -52t-14.5 -72q0 -11 4 -19.5t10 -8.5q5 0 9.5 8.5t4.5 19.5q0 19 9.5 38.5t27.5 35.5
t43.5 26.5t57.5 10.5q46 0 85.5 -21.5t78.5 -48t79.5 -48t88.5 -21.5q30 0 59.5 11t53 32t38.5 52t15 72zM720 203q0 12 -4 20t-10 8t-10 -8t-4 -20q0 -19 -10 -38.5t-28 -35.5t-43.5 -26t-56.5 -10q-46 0 -85.5 21.5t-78.5 47.5t-79.5 47.5t-88.5 21.5q-30 0 -59.5 -11
t-53.5 -32t-38.5 -52t-14.5 -71q0 -12 4 -20.5t10 -8.5q5 0 9.5 8.5t4.5 20.5q0 18 9.5 37.5t27.5 35.5t43.5 26.5t57.5 10.5q46 0 85.5 -21.5t78.5 -48t79.5 -48t88.5 -21.5q30 0 59.5 11t53 32t38.5 52t15 72z" />
    <glyph glyph-name="arrowboth" unicode="&#xab;" horiz-adv-x="1000" 
d="M942 246q2 5 0 8q-3 4 -6 6q-54 23 -95 64.5t-62 96.5q-2 7 -10 7h-9l-3 -1q-8 -3 -8 -10l1 -4q17 -44 44.5 -80t63.5 -63h-718q36 27 63.5 63t44.5 80l1 4q0 7 -8 10l-3 1h-9q-8 0 -10 -7q-21 -55 -62 -96.5t-95 -64.5q-5 -2 -6 -6q-2 -5 0 -8q3 -5 6 -6
q54 -23 95 -64.5t62 -96.5q2 -7 10 -7h9l3 1q8 3 8 10l-1 4q-17 44 -44.5 80t-63.5 63h718q-36 -27 -63.5 -63t-44.5 -80l-1 -4q0 -7 8 -10l3 -1h9q8 0 10 7q21 55 62 96.5t95 64.5q5 2 6 6z" />
    <glyph glyph-name="ellipsis" unicode="&#x2026;" horiz-adv-x="1000" 
d="M876 53q0 22 -15.5 37.5t-37.5 15.5t-37.5 -15.5t-15.5 -37.5t15.5 -37.5t37.5 -15.5t37.5 15.5t15.5 37.5zM547 53q0 22 -15.5 37.5t-37.5 15.5t-37.5 -15.5t-15.5 -37.5t15.5 -37.5t37.5 -15.5t37.5 15.5t15.5 37.5zM218 53q0 22 -15.5 37.5t-37.5 15.5t-37.5 -15.5
t-15.5 -37.5t15.5 -37.5t37.5 -15.5t37.5 15.5t15.5 37.5z" />
    <glyph glyph-name="aleph" unicode="&#xc0;" horiz-adv-x="611" 
d="M555 71q0 14 -8 30.5t-19.5 33t-25 32.5t-23.5 28l-33 38q3 65 17 129.5t20 130.5q16 -17 26 -35.5t10 -39.5q0 -3 2 -7q3 -3 7 -3t7 3q15 14 17.5 33.5t2.5 35.5q0 19 -8.5 33t-20.5 26t-25 23.5t-22 26.5q-21 33 -38 61.5t-17 34.5q0 4 -3 6q-3 3 -7 3t-6 -2
q-16 -14 -18 -33.5t-2 -35.5q0 -13 6.5 -26.5t16 -26.5t21.5 -25.5t23 -22.5q-4 -65 -17.5 -128.5t-19.5 -128.5l-271 311q-22 26 -38 52.5t-16 56.5q0 4 -3 6q-3 3 -7 3q-3 0 -7 -2q-15 -14 -17 -33.5t-2 -35.5q0 -14 8 -30.5t19.5 -33t24.5 -32t24 -27.5l32 -38
q-31 -51 -56 -106t-25 -117q0 -26 9.5 -48.5t20.5 -44.5t20.5 -43.5t9.5 -44.5q0 -20 -22 -28t-56 -8q-9 0 -9 -9v-3q0 -10 9 -10h78q15 0 32.5 2.5t31.5 9t23.5 17.5t9.5 29q0 28 -14 50.5t-31 43t-31 41.5t-14 46q0 51 8 101.5t29 95.5l276 -318q22 -26 38.5 -52t16.5 -56
q0 -3 2 -7q3 -3 7 -3t7 3q15 14 17.5 33.5t2.5 34.5z" />
    <glyph glyph-name="weierstrass" unicode="&#xc3;" horiz-adv-x="636" 
d="M640 199q10 41 7.5 78.5t-20.5 69.5q-15 28 -42 45.5t-64 17.5q-54 0 -103.5 -21t-92 -57t-78.5 -84.5t-63 -103.5l-6 7q-20 23 -19 59t11 74q7 28 18.5 55t30.5 51q14 17 28.5 29t30.5 12q8 0 12 9v3q2 4 -0.5 7t-6.5 3q-28 0 -52.5 -18t-42.5 -40q-25 -31 -40 -64.5
t-24 -68.5q-11 -45 -10.5 -89t25.5 -77l15 -20q-14 -40 -23 -76q-8 -34 -16.5 -72t-7.5 -70.5t14.5 -53.5t49.5 -21q22 0 42 11t37 28q19 20 31 42.5t18 46.5q7 28 5 55.5t-18 47.5l-86 110q25 55 58.5 103t74 83.5t87 56t96.5 20.5q24 0 41 -14.5t24 -37.5
q10 -30 5.5 -64.5t-13.5 -71.5q-9 -36 -22 -70.5t-38 -64.5q-19 -23 -43 -38t-48 -15q-30 0 -48.5 18t-19.5 46q8 2 14 7t8 14q3 11 -3 16.5t-14 5.5t-16 -5.5t-11 -16.5q-6 -23 -2 -42.5t15.5 -33.5t29.5 -22.5t41 -8.5q37 0 72.5 17t64.5 45q34 32 55.5 70t31.5 78z
M254 -111q-5 -17 -12.5 -32t-20.5 -28q-21 -23 -44 -23q-25 0 -35 16t-10 43q0 26 7 61t17 74q3 14 7 27t9 26l74 -94q11 -13 12 -31.5t-4 -38.5z" />
    <glyph glyph-name="parenrightex" unicode="&#xf7;" horiz-adv-x="389" 
d="M289 146v400h-58v-400h58z" />
    <glyph glyph-name="fraction" unicode="&#x20ac;" horiz-adv-x="166" 
d="M334 676h-43l-457 -702h44z" />
    <glyph glyph-name="Rfraktur" unicode="&#xc2;" horiz-adv-x="722" 
d="M715 449l-147 263q-2 5 -8 5q-39 0 -76.5 -7.5t-71 -22t-60 -36t-42.5 -49.5q-4 7 -7.5 13t-7.5 13q-22 32 -54 55t-72 23q-24 0 -44.5 -10t-35.5 -27t-23 -39.5t-8 -46.5q0 -26 14 -46t30 -37q25 -25 44 -48t19 -52q0 -28 -1.5 -52.5t-7 -43t-15.5 -29t-27 -10.5
q-15 0 -23 17.5t-8 43.5q0 10 -10 10h-6q-9 0 -9 -10q0 -14 3 -28.5t9.5 -26.5t17.5 -20t26 -8q27 0 43 15.5t25 38.5t11.5 51t2.5 54q0 38 -20.5 67.5t-46.5 52.5q-17 16 -29 30.5t-12 32.5q0 20 6 37.5t17 31t25.5 21.5t32.5 8q24 0 42 -19.5t29 -46.5q17 -40 19.5 -83.5
t2.5 -89.5v-191q0 -48 -1.5 -97t-12.5 -86q-9 -30 -20.5 -50t-31.5 -20q-31 0 -53.5 24t-36.5 56l-6 14l18 7l3 2q5 5 2 11l-2 3l-2 2q-5 5 -10 2l-17 -7l-5 12l-2 3q-5 5 -11 2l-3 -2l-4 -4q-4 -4 -2 -10l4 -10l-16 -6l-3 -2q-5 -5 -2 -11l2 -3l2 -2q4 -6 10 -2l15 6l7 -17
q7 -18 18 -34t25 -28.5t31.5 -20t37.5 -7.5q19 0 35 7t29.5 19t24 27t18.5 30q23 45 32.5 93.5t9.5 98.5v93h115l12 -223q-8 -27 -2 -53.5t21.5 -46.5t39 -32.5t52.5 -12.5h11q4 0 6 2l103 78q5 7 -4 13l-9 5q-5 4 -11 0l-82 -65q-27 17 -36.5 47t-4.5 65l-13 229
q29 8 58 23.5t55 29.5l56 31q8 6 3 13zM633 427q-35 -20 -69 -35.5t-64 -15.5h-155v68q0 64 -19 120q16 46 60.5 75.5t104.5 40.5z" />
    <glyph glyph-name="reflexsuperset" unicode="&#xca;" 
d="M692 346q0 61 -24.5 114t-66 92t-96.5 61.5t-117 22.5h-285q-8 0 -14 -6t-6 -14t6 -14t14 -6h285q54 0 102 -19.5t84 -53t57 -79.5t21 -98q0 -53 -21 -98.5t-57 -79t-84 -53t-102 -19.5h-285q-8 0 -14 -6t-6 -14t6 -14t14 -6h285q62 0 117 22t96.5 61t66 92t24.5 115z
M672 -119q0 8 -6 14t-14 6h-549q-8 0 -14 -6t-6 -14t6 -14t14 -6h549q8 0 14 6t6 14z" />
    <glyph glyph-name="Ifraktur" unicode="&#xc1;" horiz-adv-x="722" 
d="M692 549q0 10 -9 10h-11q-10 0 -10 -10q0 -24 -25 -37.5t-60 -13.5q-10 0 -17.5 9t-15.5 26q-20 39 -48.5 71t-63.5 54.5t-76 35t-85 12.5q-42 0 -81 -14t-69 -39.5t-47.5 -60.5t-17.5 -77t18.5 -77t49 -60t70.5 -39t84 -14q10 0 10 10v3q0 9 -10 9q-39 0 -73.5 12.5
t-61 35t-42 53.5t-15.5 67t15 66.5t40 53t58.5 35.5t71.5 13q32 0 57.5 -17.5t48 -43t44 -53t44.5 -48.5q23 -20 51.5 -32.5t60.5 -12.5q19 0 39.5 3.5t37.5 12t27.5 22.5t10.5 35zM692 336q0 22 -10 39.5t-26 30t-36.5 19t-42.5 6.5q-26 0 -49 -8.5t-41 -24t-28.5 -37
t-10.5 -46.5q0 -28 14.5 -50t31.5 -41.5t31.5 -39.5t14.5 -44t-9.5 -45.5t-26 -38t-38.5 -28t-47 -16.5q-27 6 -50 21t-45 34t-43.5 39.5t-45 37.5t-49.5 28t-57 11h-64q-9 0 -9 -9v-3q0 -10 9 -10q31 0 57.5 -12.5t50.5 -32t47.5 -41.5t48.5 -41.5t53.5 -32t61.5 -12.5h64
q34 0 65.5 11t56 31t39 47.5t14.5 61.5q0 28 -14.5 49.5t-31.5 41.5t-31.5 40t-14.5 44q0 38 10.5 65.5t35.5 27.5q35 0 60 -20.5t25 -51.5q0 -10 10 -10h11q9 0 9 10z" />
    <glyph glyph-name="notsubset" unicode="&#xcb;" 
d="M692 -20q0 8 -6 14t-14 6h-284q-51 0 -97 17l248 483h133q8 0 14 6t6 14t-6 14t-14 6h-112l75 147q4 8 1.5 15.5t-10.5 11.5q-8 5 -15.5 2.5t-11.5 -10.5l-85 -166h-126q-62 0 -117.5 -22.5t-97 -61.5t-66 -92t-24.5 -114q0 -41 11 -78.5t31.5 -69.5t48.5 -58.5t62 -45.5
l-95 -185q-4 -8 -1.5 -15.5t10.5 -11.5q8 -5 15.5 -2.5t11.5 10.5l95 188q27 -11 56 -16.5t60 -5.5h284q8 0 14 6t6 14zM493 500l-239 -467q-59 32 -95 89.5t-36 127.5q0 52 21 98t57 79.5t84.5 53t102.5 19.5h105z" />
    <glyph glyph-name="union" unicode="&#xc8;" horiz-adv-x="667" 
d="M609 191v387q0 8 -6 14t-14 6t-14 -6t-6 -14v-387q0 -39 -19.5 -71t-52 -54.5t-75.5 -35t-90 -12.5t-90 12.5t-75.5 35t-51.5 54.5t-19 71v387q0 8 -6 14t-14 6t-14 -6t-6 -14v-387q0 -51 24 -90.5t63 -67t88.5 -41.5t100.5 -14t101 14t89 41.5t63 67t24 90.5z" />
    <glyph glyph-name="reflexsubset" unicode="&#xcd;" 
d="M692 76q0 8 -6 14t-14 6h-284q-54 0 -102.5 19.5t-84.5 53t-57 79t-21 98.5q0 52 21 98t57 79.5t84.5 53t102.5 19.5h284q8 0 14 6t6 14t-6 14t-14 6h-284q-62 0 -117.5 -22.5t-97 -61.5t-66 -92t-24.5 -114q0 -62 24.5 -115t66 -92t97 -61t117.5 -22h284q8 0 14 6t6 14z
M692 -119q0 8 -6 14t-14 6h-549q-8 0 -14 -6t-6 -14t6 -14t14 -6h549q8 0 14 6t6 14z" />
    <glyph glyph-name="element" unicode="&#xce;" horiz-adv-x="667" 
d="M581 -20q0 8 -6 14t-14 6h-173q-52 0 -98 17.5t-81.5 48.5t-58 73t-26.5 91h437q8 0 14 6t6 14t-6 14t-14 6h-437q4 49 26.5 91t58 73t81.5 48.5t98 17.5h173q8 0 14 6t6 14t-6 14t-14 6h-173q-62 0 -117.5 -22.5t-97 -61.5t-66 -92t-24.5 -114q0 -62 24.5 -115t66 -92
t97 -61t117.5 -22h173q8 0 14 6t6 14z" />
    <glyph glyph-name="notelement" unicode="&#xcf;" horiz-adv-x="667" 
d="M635 687q4 8 1.5 15.5t-10.5 11.5q-8 5 -15.5 2.5t-11.5 -10.5l-85 -166h-126q-62 0 -117.5 -22.5t-97 -61.5t-66 -92t-24.5 -114q0 -41 11 -78.5t31.5 -69.5t48.5 -58.5t62 -45.5l-95 -185q-4 -8 -1.5 -15.5t10.5 -11.5q8 -5 15.5 -2.5t11.5 10.5l96 187
q27 -10 56 -15.5t59 -5.5h173q8 0 14 6t6 14t-6 14t-14 6h-173q-51 0 -96 17l109 213h160q8 0 14 6t6 14t-6 14t-14 6h-140l118 230h22q8 0 14 6t6 14t-7 11t-13 9zM493 500l-118 -230h-251q4 49 26.5 91t58 73t81.5 48.5t98 17.5h105zM354 230l-99 -195q-55 30 -90.5 81
t-40.5 114h230z" />
    <glyph glyph-name="propersubset" unicode="&#xcc;" 
d="M692 -20q0 8 -6 14t-14 6h-284q-54 0 -102.5 19.5t-84.5 53t-57 79t-21 98.5q0 52 21 98t57 79.5t84.5 53t102.5 19.5h284q8 0 14 6t6 14t-6 14t-14 6h-284q-62 0 -117.5 -22.5t-97 -61.5t-66 -92t-24.5 -114q0 -62 24.5 -115t66 -92t97 -61t117.5 -22h284q8 0 14 6t6 14
z" />
    <glyph glyph-name="copyrightserif" unicode="&#xd3;" horiz-adv-x="947" 
d="M915 267q0 92 -35 172.5t-95 140.5t-140.5 95t-172.5 35t-172.5 -35t-140.5 -95t-95 -140.5t-35 -172.5t35 -172.5t95 -140.5t140.5 -95t172.5 -35t172.5 35t140.5 95t95 140.5t35 172.5zM875 267q0 -83 -31.5 -156.5t-86.5 -128.5t-128 -86.5t-157 -31.5
q-83 0 -156.5 31.5t-128 86.5t-86 128.5t-31.5 156.5q0 84 31.5 157t86 128t128 86.5t156.5 31.5q84 0 157 -31.5t128 -86.5t86.5 -128t31.5 -157zM692 181q0 7 -8 7h-5q-7 0 -7 -7q0 -36 -14 -68t-38 -55.5t-57 -37.5t-70 -14q-45 0 -85 19t-69 53q-31 37 -42 83.5
t-11 95.5q0 48 11 94.5t42 83.5q28 33 68 52t85 19q36 0 67.5 -15t54.5 -40t37 -59t16 -71q2 -7 8 -7h9q8 0 8 8v200q0 8 -8 8h-2q-5 0 -7 -4l-45 -62q-27 30 -64 48t-82 18q-56 0 -107.5 -21.5t-90.5 -59.5q-40 -38 -60.5 -88.5t-20.5 -104.5t20.5 -104t60.5 -89
q39 -38 90.5 -59t107.5 -21q43 0 81 15.5t66 42.5t44.5 63t16.5 77z" />
    <glyph glyph-name="trademarkserif" unicode="&#xd4;" horiz-adv-x="959" 
d="M921 268v18q-14 0 -28.5 0.5t-22.5 3.5q-5 2 -7.5 7t-2.5 10v328q0 6 2.5 11t7.5 7q8 2 22.5 3t28.5 1v17h-85h-23q-8 0 -11 -6l-131 -340l-131 340q-2 6 -10 6h-39h-69v-17q13 0 28 -1t23 -3q5 -2 7.5 -7t2.5 -11v-312q0 -17 -15 -27q-11 -7 -22.5 -8.5t-23.5 -1.5v-18
q17 1 34 1h35h35t35 -1v18q-12 0 -23.5 1.5t-22.5 8.5q-15 9 -15 27v330l146 -379q2 -6 9 -6q5 0 9 6l148 384v-351q0 -5 -2.5 -10t-7.5 -7q-8 -3 -23 -3.5t-28 -0.5v-18q21 1 42 1h43h42t43 -1zM407 539l-11 135h-365l-12 -135h15q2 26 6 54t18 42t32.5 17.5t37.5 3.5h27
q7 0 14.5 -0.5t11.5 -3.5q5 -3 5.5 -8t0.5 -10v-326q0 -7 -4.5 -11.5t-10.5 -6.5q-11 -3 -32.5 -3.5t-40.5 -0.5v-18q114 3 228 0v18q-19 0 -40.5 0.5t-32.5 3.5q-14 3 -14 18v326q0 5 0.5 10.5t4.5 7.5q4 3 11.5 3.5t14.5 0.5h27q19 0 38 -3.5t33 -17.5q13 -13 17 -41.5
t6 -54.5h15z" />
    <glyph glyph-name="HT" unicode="&#xe01e;" horiz-adv-x="250" 
 />
    <glyph glyph-name="HT" unicode="&#xf8ff;" horiz-adv-x="250" 
 />
    <glyph glyph-name="registerserif" unicode="&#xd2;" horiz-adv-x="947" 
d="M915 267q0 92 -35 172.5t-95 140.5t-140.5 95t-172.5 35t-172.5 -35t-140.5 -95t-95 -140.5t-35 -172.5t35 -172.5t95 -140.5t140.5 -95t172.5 -35t172.5 35t140.5 95t95 140.5t35 172.5zM875 267q0 -83 -31.5 -156.5t-86.5 -128.5t-128 -86.5t-157 -31.5
q-83 0 -156.5 31.5t-128 86.5t-86 128.5t-31.5 156.5q0 84 31.5 157t86 128t128 86.5t156.5 31.5q84 0 157 -31.5t128 -86.5t86.5 -128t31.5 -157zM758 73q0 11 -11 11h-3q-11 0 -11 -11q0 -27 -14 -46t-36 -19q-24 0 -34 23t-18 64l-14 66q-8 35 -32.5 58.5t-56.5 35.5
q38 9 71 30q26 16 44 40t18 53q0 31 -18 55t-44 41q-33 22 -71 31t-78 9h-239v-25q15 0 33 -1t27 -6q8 -5 10 -14.5t2 -20.5v-380q0 -11 -2 -20.5t-10 -14.5q-9 -5 -27 -6t-33 -1v-25q52 3 106 3q53 0 107 -3v25q-16 0 -33.5 1t-26.5 6q-8 5 -10 14.5t-2 20.5v179h98
q19 0 36.5 -7t30.5 -18.5t20.5 -27.5t7.5 -34v-66q0 -28 11 -48.5t30 -33.5t44 -19t53 -6q35 0 55 27t20 60zM574 378q0 -23 -5.5 -44.5t-22.5 -35.5q-23 -18 -50.5 -24t-56.5 -6h-87v179q0 9 0.5 19.5t5.5 15.5t13.5 6t16.5 1h51q29 0 56.5 -6t50.5 -24q17 -14 22.5 -36
t5.5 -45z" />
    <glyph glyph-name="logicalor" unicode="&#xda;" horiz-adv-x="667" 
d="M611 570q4 8 1 15.5t-11 10.5q-8 4 -15.5 1t-10.5 -11l-239 -539l-238 539q-3 8 -10.5 11t-15.5 -1q-8 -3 -11 -10.5t0 -15.5l257 -580q3 -8 10 -11q9 -3 16 0q9 5 11 11z" />
    <glyph glyph-name="arrowdblboth" unicode="&#xdb;" horiz-adv-x="1000" 
d="M966 254q-1 3 -7 7q-90 34 -158 101t-104 156q-3 7 -10 7h-18l-4 -1q-4 -1 -5.5 -4t-1.5 -6q8 -43 33.5 -78.5t53.5 -68.5h-488q54 64 87 143q3 10 -7 14q-1 1 -4 1h-18q-7 0 -10 -7q-34 -85 -99 -151q-69 -71 -164 -107q-9 -4 -6 -14q1 -3 7 -7q90 -34 158 -101
t104 -156q3 -7 10 -7h18l4 1q4 1 5.5 4t1.5 6q-8 43 -33.5 78.5t-53.5 68.5h488q-54 -64 -87 -143q-4 -11 7 -14q1 -1 4 -1h18q6 0 10 7q34 85 99 151q69 71 164 107q9 4 6 14zM891 250q-59 -31 -108 -77h-564q-49 46 -108 77q59 31 108 77h564q49 -46 108 -77z" />
    <glyph glyph-name="logicaland" unicode="&#xd9;" horiz-adv-x="667" 
d="M611 6l-256 580q-3 7 -11 10q-6 4 -16 0q-6 -3 -10 -10l-257 -580q-3 -8 0 -15.5t11 -11.5q8 -3 15.5 0t10.5 11l238 538l239 -538q3 -8 10.5 -11t15.5 0q8 4 11 11.5t-1 15.5z" />
    <glyph glyph-name="arrowdown" unicode="&#xaf;" horiz-adv-x="500" 
d="M427 -21v9l-1 3q-3 8 -10 8q-47 -9 -83 -40.5t-64 -68.5v784q0 10 -6.5 15t-14.5 5q-7 0 -13 -5t-6 -15v-784q-28 37 -63.5 68.5t-83.5 40.5q-7 0 -10 -8l-1 -3v-9q0 -8 7 -10q55 -21 96.5 -62t64.5 -95q2 -5 6 -6q5 -2 8 0q4 3 6 6q23 54 64.5 95t96.5 62q7 2 7 10z" />
    <glyph glyph-name="divide" unicode="&#xb8;" 
d="M451 465q0 26 -18.5 44.5t-44.5 18.5t-44.5 -18.5t-18.5 -44.5t18.5 -44.5t44.5 -18.5t44.5 18.5t18.5 44.5zM720 250q0 8 -6 14t-14 6h-624q-8 0 -14 -6t-6 -14t6 -14t14 -6h624q8 0 14 6t6 14zM451 35q0 26 -18.5 44.5t-44.5 18.5t-44.5 -18.5t-18.5 -44.5t18.5 -44.5
t44.5 -18.5t44.5 18.5t18.5 44.5z" />
    <glyph glyph-name="arrowup" horiz-adv-x="500" 
d="M427 512v9q0 8 -7 10q-55 21 -96.5 62t-64.5 95q-2 5 -6 6q-5 2 -8 0q-5 -3 -6 -6q-23 -54 -64.5 -95t-96.5 -62q-7 -2 -7 -10v-9l1 -3q3 -8 10 -8q47 9 83 40.5t64 68.5v-784q0 -10 6 -15t13 -5q8 0 14.5 5t6.5 15v784q28 -37 63.5 -68.5t83.5 -40.5q7 0 10 8z" />
    <glyph glyph-name="second" horiz-adv-x="411" 
d="M379 682q9 20 0 34.5t-24 20t-31 -0.5t-22 -27l-93 -340q-2 -3 0 -6t4 -3l18 -6q2 -2 5 -0.5t4 4.5zM199 682q9 20 0 34.5t-24 20t-31 -0.5t-22 -27l-93 -340q-2 -3 0 -6t4 -3l18 -6q2 -2 5 -0.5t4 4.5z" />
    <glyph glyph-name="arrowvertex" horiz-adv-x="278" 
d="M158 -230v960q0 8 -6 14t-14 6t-14 -6t-6 -14v-960q0 -8 6 -14t14 -6t14 6t6 14z" />
    <glyph glyph-name="arrowhorizex" horiz-adv-x="1000" 
d="M1063 230q10 0 15 6t5 13q0 8 -5 14.5t-15 6.5h-1112q-10 0 -15 -6.5t-5 -14.5q0 -7 5 -13t15 -6h1112z" />
    <glyph glyph-name="angle" horiz-adv-x="722" 
d="M665 20q0 8 -6 14t-14 6h-525l540 621q12 15 -2 29q-6 5 -14.5 4.5t-13.5 -6.5l-570 -655q-5 -7 -5 -13q0 -8 7 -15q7 -5 13 -5h570q8 0 14 6t6 14z" />
    <glyph glyph-name="dotmath" horiz-adv-x="278" 
d="M191 250q0 22 -15.5 37.5t-37.5 15.5t-37.5 -15.5t-15.5 -37.5t15.5 -37.5t37.5 -15.5t37.5 15.5t15.5 37.5z" />
    <glyph glyph-name="arrowdblup" horiz-adv-x="611" 
d="M580 341v18q0 6 -7 10q-97 47 -164.5 129.5t-93.5 187.5q-2 6 -8 8q-5 2 -8.5 -1t-4.5 -7q-26 -105 -93.5 -187.5t-164.5 -129.5q-7 -4 -7 -10v-18q0 -5 3.5 -8t7.5 -3t5 1q82 40 142 100v-605q0 -8 6 -14t14 -6t14 6t6 14v649q48 58 78 129q28 -69 77 -129v-649
q0 -8 6 -14t14 -6t14 6t6 14v605q60 -60 142 -100q5 -2 9 -0.5t6 5.5q0 2 0.5 2.5t0.5 2.5z" />
    <glyph glyph-name="arrowdblright" horiz-adv-x="1000" 
d="M942 253q-2 6 -8 8q-105 26 -187.5 93.5t-129.5 164.5q-3 6 -10 6h-18q-11 0 -11 -11q0 -3 1 -5q39 -80 100 -142h-603q-8 0 -14 -6t-6 -14t6 -14t14 -6h647q60 -48 129 -77q-69 -29 -129 -77h-647q-8 0 -14 -6t-6 -14t6 -14t14 -6h603q-61 -62 -100 -142q-5 -11 5 -15
q2 -1 5 -1h18q7 0 10 6q43 89 115 152q43 38 94 65t108 41q11 4 8 14z" />
    <glyph glyph-name="bracerightmid" horiz-adv-x="500" 
d="M426 367v2q0 10 -10 10q-27 0 -51.5 8.5t-42.5 23.5t-29 36t-11 45v244h-66v-244q0 -50 34.5 -80.5t84.5 -43.5q-50 -13 -84.5 -43.5t-34.5 -80.5v-244h66v244q0 24 11 45t29 36t42.5 23.5t51.5 8.5q10 0 10 10z" />
    <glyph glyph-name="bracerightbt" horiz-adv-x="500" 
d="M282 132v244h-66v-244q0 -24 -11 -44t-29.5 -35t-42.5 -23t-51 -8q-10 0 -10 -9v-3q0 -10 10 -10q36 0 71.5 7.5t64 23.5t46.5 41t18 60z" />
    <glyph glyph-name="apple" horiz-adv-x="790" 
d="M564 750v12q0 8 -1 17q-54 -14 -81 -33q-37 -26 -58 -69q-21 -41 -21 -70q0 -3 0.5 -7t0.5 -9q46 3 61 13q53 29 76 65q23 35 23 81zM731 194q-61 31 -86 73q-27 42 -27 89q0 54 27 99q17 30 65 64q-38 41 -76 59q-39 17 -93 17q-40 0 -70 -13q-16 -7 -26 -10.5t-15 -5.5
q-5 -1 -10.5 -1.5t-11.5 -0.5q-24 0 -58 15q-35 16 -71 16q-118 0 -177 -83q-45 -65 -45 -153q0 -75 35 -171q35 -94 99 -158q45 -45 98 -45q20 0 59 14q37 15 63 15q20 0 58 -15q37 -14 62 -14q49 0 85 32q56 46 115 177z" />
  </font>
</defs>
</svg>
